<svg xmlns="http://www.w3.org/2000/svg" xmlns:xlink="http://www.w3.org/1999/xlink" version="1.1" x="0px" y="0px" viewBox="0 0 32 32" enable-background="new 0 0 32 32" xml:space="preserve"><g><rect x="8" y="13" width="2" height="2"/><rect x="5" y="16" width="2" height="2"/><rect x="8" y="16" width="2" height="2"/><rect x="8" y="10" width="2" height="2"/><rect x="8" y="19" width="2" height="2"/><rect x="11" y="13" width="1" height="2"/><rect x="11" y="10" width="1" height="2"/><rect x="5" y="13" width="2" height="2"/><rect x="5" y="19" width="2" height="2"/><rect x="5" y="10" width="2" height="2"/><rect x="11" y="19" width="1" height="2"/><rect x="11" y="16" width="1" height="2"/><polygon points="25,8 25,13 30,13  "/><polygon points="15,2 15,7 20,7  "/><rect x="19" y="19" width="2" height="2"/><rect x="16" y="22" width="2" height="2"/><rect x="19" y="22" width="2" height="2"/><rect x="19" y="16" width="2" height="2"/><rect x="19" y="25" width="2" height="2"/><rect x="22" y="19" width="2" height="2"/><rect x="25" y="19" width="2" height="2"/><rect x="22" y="16" width="2" height="2"/><rect x="16" y="19" width="2" height="2"/><rect x="16" y="25" width="2" height="2"/><rect x="25" y="25" width="2" height="2"/><rect x="16" y="16" width="2" height="2"/><rect x="22" y="25" width="2" height="2"/><path d="M24,13V8H14c-0.5523071,0-1,0.4476929-1,1v20c0,0.5522461,0.4476929,1,1,1h15c0.5522461,0,1-0.4477539,1-1V14h-5   C24.4476929,14,24,13.5523071,24,13z M28,15.5v12c0,0.2763672-0.2236328,0.5-0.5,0.5h-12c-0.2763672,0-0.5-0.2236328-0.5-0.5v-12   c0-0.2763672,0.2236328-0.5,0.5-0.5h12C27.7763672,15,28,15.2236328,28,15.5z"/><rect x="25" y="16" width="2" height="2"/><rect x="22" y="22" width="2" height="2"/><rect x="25" y="22" width="2" height="2"/><path d="M14,2h-2H3C2.4476929,2,2,2.4476929,2,3v20c0,0.5522461,0.4476929,1,1,1h9v-2H4.5C4.223877,22,4,21.776123,4,21.5v-12   C4,9.2238159,4.223877,9,4.5,9H12c0-1.1046143,0.8954468-2,2-2V2z"/></g></svg>