<svg width="65" height="65" viewBox="0 0 65 65" fill="none" xmlns="http://www.w3.org/2000/svg">
<path d="M28.5381 61.2205L28.5413 61.2209C29.4205 61.3405 30.3104 61.413 31.2109 61.4559C31.2946 61.4565 31.398 61.4632 31.5109 61.4921H33.1019C33.267 61.4606 33.4263 61.4466 33.566 61.4369C33.6135 61.4336 33.6575 61.4308 33.6991 61.4282C33.8031 61.4217 33.8921 61.4161 33.9837 61.4055L33.9974 61.4039L34.0112 61.403C35.0827 61.3386 36.1462 61.2175 37.2009 61.0324L37.2018 61.0322C39.9491 60.5551 42.5675 59.6842 45.0594 58.4286C47.2222 57.3375 49.214 55.9889 51.0344 54.3899L51.0344 54.3899C52.8616 52.7852 54.4527 50.9727 55.8168 48.9594L55.817 48.9592C57.6509 46.2558 58.9717 43.3243 59.7926 40.1626C60.221 38.4791 60.4916 36.7733 60.6211 35.0436L60.6213 35.0417C60.6411 34.7891 60.6414 34.5319 60.6414 34.253V34.2374L60.6424 34.2219C60.643 34.211 60.6437 34.1971 60.6444 34.1809C60.6477 34.1061 60.6533 33.9806 60.6775 33.8568V32.2202C60.6759 32.2038 60.6735 32.1862 60.6702 32.161C60.6685 32.1487 60.6667 32.1345 60.6645 32.1178C60.6579 32.0665 60.6488 31.9911 60.6486 31.9097M28.5381 61.2205L61.1486 31.9079M28.5381 61.2205C26.8836 61.0064 25.2567 60.6426 23.6728 60.1366C20.9531 59.2663 18.4196 58.0177 16.0709 56.3901C13.8934 54.877 11.9675 53.0936 10.2897 51.0388L10.2891 51.038C8.31084 48.6254 6.7705 45.9646 5.67832 43.0405L5.67784 43.0393C4.70139 40.4464 4.11696 37.7629 3.93708 34.993C3.93524 34.8134 3.90529 34.6409 3.85767 34.4773V31.6522C3.90815 31.4901 3.92891 31.3319 3.93645 31.1888C3.97165 30.5308 4.04224 29.8694 4.12934 29.2099C4.55792 26.0424 5.49898 23.039 6.94821 20.1917C7.94744 18.229 9.16085 16.4033 10.5879 14.7181L10.5879 14.7181C12.0018 13.0482 13.5863 11.5563 15.3414 10.251C18.2043 8.1238 21.3512 6.59029 24.7915 5.6488C26.4609 5.19285 28.167 4.89316 29.8936 4.75L29.8985 4.74955C29.9908 4.74099 30.0762 4.73867 30.178 4.7359C30.2294 4.73451 30.285 4.733 30.3478 4.73051C30.4995 4.72451 30.6772 4.71257 30.8618 4.67218H33.6755M28.5381 61.2205L37.7884 5.18551M60.6486 31.9097C60.6486 31.9091 60.6486 31.9085 60.6486 31.9079H61.1486M60.6486 31.9097C60.6486 31.9099 60.6486 31.9101 60.6486 31.9102L61.1486 31.9079M60.6486 31.9097C60.6421 30.5147 60.4513 29.1246 60.1927 27.7297M61.1486 31.9079C61.142 30.4701 60.9454 29.0469 60.6843 27.6384M60.1927 27.7297L60.6843 27.6384M60.1927 27.7297C59.7068 25.1135 58.8513 22.6249 57.6516 20.247L57.6516 20.2468C56.6381 18.236 55.3973 16.3742 53.9339 14.6616L53.9336 14.6613C52.1128 12.5266 50.0289 10.6932 47.6666 9.17377L47.6661 9.17344C44.6247 7.212 41.3362 5.88493 37.7884 5.18551M60.1927 27.7297C60.1927 27.7296 60.1927 27.7296 60.1927 27.7295L60.6843 27.6384M60.6843 27.6384C60.1894 24.9737 59.3182 22.4402 58.098 20.0218L37.7884 5.18551M37.7884 5.18551C37.7884 5.18552 37.7884 5.18553 37.7885 5.18554L37.8847 4.69487L37.788 5.18543C37.7881 5.18546 37.7882 5.18549 37.7884 5.18551ZM37.7884 5.18551C36.6634 4.96503 35.5271 4.82097 34.377 4.72089L34.3724 4.72048L34.3724 4.72046C34.3149 4.71491 34.265 4.71479 34.1944 4.71462C34.1595 4.71454 34.1197 4.71444 34.0713 4.71368C33.9635 4.71197 33.8247 4.70607 33.6755 4.67218M33.6755 4.67218H33.738V4.17218L33.5991 4.6525C33.6248 4.65993 33.6503 4.66646 33.6755 4.67218Z" stroke="black"/>
<path style="mix-blend-mode:lighten" d="M24.7481 21.0867C24.7278 21.6179 24.8222 22.1986 24.9787 22.7794C25.2769 23.8845 25.771 24.8972 26.3537 25.8537C27.6812 28.0288 29.3544 29.8911 31.1698 31.6201C31.3185 31.7622 31.4955 31.8822 31.685 31.9737C31.8748 32.0724 32.0643 32.0724 32.2604 31.9878C32.4499 31.9032 32.6195 31.7827 32.7619 31.6263C33.3919 30.975 34.0146 30.3227 34.611 29.6495C35.4507 28.693 36.2505 27.7089 36.9752 26.6533C37.6328 25.6969 38.2217 24.6908 38.6548 23.5999C39.0879 22.5156 39.2984 21.3973 39.1562 20.2213C38.9191 18.2809 38.1269 16.6368 36.7109 15.3477C35.0366 13.8258 33.0864 13.2165 30.8917 13.5559C27.3221 14.1091 24.7343 17.3963 24.7481 21.0867Z" fill="black"/>
<path d="M43.2218 47.5351C42.7725 47.5487 42.268 47.4931 41.7636 47.386C40.2715 47.0594 39.0042 46.3809 38.0302 45.1781C37.4379 44.4446 36.9399 43.6498 36.5107 42.8138C36.0061 41.8287 35.5844 40.8024 35.2167 39.7635C34.7674 38.5069 34.3859 37.2228 34.0923 35.9249C33.9292 35.1978 34.1125 34.7422 34.9167 34.4917C35.9383 34.1725 36.9674 33.8872 38.0165 33.6557C39.7533 33.2751 41.504 33.031 43.2897 33.0912C43.7942 33.1114 44.2975 33.1656 44.7955 33.2539C46.2399 33.5056 47.4659 34.1715 48.4673 35.2241C50.1777 37.0177 50.858 39.1578 50.4362 41.5973C49.8301 45.083 46.7368 47.5625 43.2218 47.5351Z" fill="black"/>
<path d="M20.724 47.5351C21.1733 47.5487 21.6778 47.4931 22.1821 47.386C23.6742 47.0594 24.9416 46.3809 25.9156 45.1781C26.5079 44.4446 27.0059 43.6498 27.4351 42.8138C27.9397 41.8287 28.3613 40.8024 28.729 39.7635C29.1783 38.5069 29.5598 37.2228 29.8535 35.9249C30.0166 35.1978 29.8332 34.7422 29.029 34.4917C28.0075 34.1725 26.9783 33.8872 25.9293 33.6557C24.1924 33.2751 22.4417 33.031 20.6561 33.0912C20.1516 33.1114 19.6482 33.1656 19.1502 33.2539C17.7058 33.5056 16.4798 34.1715 15.4785 35.2241C13.7681 37.0177 13.0877 39.1578 13.5095 41.5973C14.1157 45.083 17.2089 47.5625 20.724 47.5351Z" fill="black"/>
</svg>
