<svg xmlns="http://www.w3.org/2000/svg" xmlns:xlink="http://www.w3.org/1999/xlink" version="1.1" x="0px" y="0px" viewBox="0 0 100 100" enable-background="new 0 0 100 100" xml:space="preserve"><path d="M85.277,40.393c-2.881,0-5.468,1.254-7.249,3.245l-12.04-7.96c0.59-1.255,0.922-2.655,0.922-4.133  c0-5.37-4.353-9.723-9.723-9.723c-3.432,0-6.446,1.78-8.177,4.465l-24.916-5.845c0.228-0.826,0.352-1.694,0.352-2.592  c0-5.37-4.353-9.723-9.723-9.723S5,12.479,5,17.849s4.353,9.723,9.723,9.723c1.689,0,3.277-0.431,4.661-1.189l12.762,14.578  l-9.172,4.012c-1.718-2.75-4.77-4.58-8.251-4.58C9.353,40.393,5,44.746,5,50.116c0,5.37,4.353,9.723,9.723,9.723  c3.497,0,6.561-1.847,8.274-4.617l9.263,4.014L19.685,73.79c-1.453-0.864-3.149-1.362-4.962-1.362C9.353,72.428,5,76.781,5,82.151  c0,5.37,4.353,9.723,9.723,9.723s9.723-4.353,9.723-9.723c0-0.903-0.126-1.776-0.356-2.605l24.915-5.804  c1.729,2.69,4.747,4.473,8.182,4.473c5.37,0,9.723-4.353,9.723-9.723c0-1.461-0.324-2.846-0.902-4.09l11.99-7.843  c1.781,2.011,4.382,3.281,7.28,3.281c5.37,0,9.723-4.353,9.723-9.723C95,44.746,90.647,40.393,85.277,40.393z M50.277,38.384  l-8.271,9.572l-5.214-5.957l12.144-5.311C49.32,37.303,49.77,37.872,50.277,38.384z M21.635,24.685  c0.488-0.493,0.922-1.039,1.296-1.627l24.9,5.842c-0.238,0.841-0.367,1.728-0.367,2.646c0,0.889,0.122,1.748,0.345,2.566  l-12.96,5.668L21.635,24.685z M24.113,52.64c0.216-0.805,0.333-1.651,0.333-2.524c0-0.889-0.122-1.748-0.345-2.566l9.988-4.368  l6.061,6.923l-5.962,6.901L24.113,52.64z M48.912,63.386l-12.021-5.209l5.129-5.936l8.247,9.421  C49.754,62.183,49.299,62.761,48.912,63.386z M22.924,76.93c-0.311-0.487-0.663-0.945-1.053-1.368l13.094-15.154l12.832,5.56  c-0.216,0.805-0.333,1.651-0.333,2.524c0,0.914,0.129,1.797,0.365,2.636L22.924,76.93z M64.466,62.049  c-1.781-2.011-4.381-3.281-7.279-3.281c-1.693,0-3.284,0.433-4.67,1.194l-8.64-9.87l8.651-10.012  c1.383,0.757,2.971,1.187,4.659,1.187c2.881,0,5.468-1.254,7.249-3.245l12.04,7.96c-0.59,1.255-0.922,2.655-0.922,4.133  c0,1.461,0.325,2.846,0.902,4.09L64.466,62.049z"/></svg>