<svg width="26" height="17" viewBox="0 0 26 17" fill="none" xmlns="http://www.w3.org/2000/svg">
<path d="M8.24998 10.0699H9.53998C9.67789 10.0699 9.81016 10.1247 9.90768 10.2223C10.0052 10.3198 10.06 10.452 10.06 10.5899V11.8399C10.06 11.9779 10.0052 12.1101 9.90768 12.2076C9.81016 12.3052 9.67789 12.3599 9.53998 12.3599H8.24998C8.11207 12.3599 7.9798 12.3052 7.88229 12.2076C7.78477 12.1101 7.72998 11.9779 7.72998 11.8399V10.5899C7.72998 10.452 7.78477 10.3198 7.88229 10.2223C7.9798 10.1247 8.11207 10.0699 8.24998 10.0699Z" fill="black"/>
<path d="M12.3498 10.0699H13.6498C13.7851 10.0699 13.9148 10.1237 14.0105 10.2193C14.1061 10.315 14.1598 10.4447 14.1598 10.5799V11.8499C14.1598 11.9852 14.1061 12.1149 14.0105 12.2106C13.9148 12.3062 13.7851 12.3599 13.6498 12.3599H12.3498C12.2146 12.3599 12.0849 12.3062 11.9892 12.2106C11.8936 12.1149 11.8398 11.9852 11.8398 11.8499V10.5799C11.8398 10.4447 11.8936 10.315 11.9892 10.2193C12.0849 10.1237 12.2146 10.0699 12.3498 10.0699Z" fill="black"/>
<path d="M16.4599 10.07H17.7599C17.8952 10.07 18.0249 10.1238 18.1206 10.2194C18.2162 10.3151 18.2699 10.4448 18.2699 10.58V11.85C18.2699 11.9853 18.2162 12.115 18.1206 12.2107C18.0249 12.3063 17.8952 12.36 17.7599 12.36H16.4499C16.3147 12.36 16.185 12.3063 16.0893 12.2107C15.9937 12.115 15.9399 11.9853 15.9399 11.85V10.58C15.9399 10.5122 15.9534 10.4451 15.9797 10.3825C16.006 10.32 16.0444 10.2633 16.0928 10.2158C16.1413 10.1683 16.1987 10.131 16.2617 10.106C16.3247 10.0809 16.3921 10.0687 16.4599 10.07Z" fill="black"/>
<path d="M3.10979 8.33999C3.46775 8.55771 3.78292 8.839 4.03979 9.16999C4.28018 9.51721 4.44069 9.91337 4.50979 10.33C4.60762 10.9315 4.65113 11.5407 4.63979 12.15C4.61942 12.5564 4.61942 12.9636 4.63979 13.37C4.64606 13.5784 4.69722 13.7831 4.78979 13.97C4.84143 14.0916 4.93822 14.1884 5.05979 14.24C5.23921 14.2962 5.42327 14.3363 5.60979 14.36C5.71291 14.3738 5.81216 14.4085 5.90153 14.4617C5.99091 14.515 6.06855 14.5859 6.12979 14.67C6.27752 14.8726 6.35161 15.1195 6.33979 15.37C6.33979 16.0367 5.92979 16.37 5.10979 16.37C4.63702 16.377 4.16984 16.2671 3.74979 16.05C3.36003 15.8452 3.03725 15.5328 2.81979 15.15C2.59971 14.7379 2.48627 14.2772 2.48979 13.81C2.48979 12.96 2.48979 12.28 2.43979 11.81C2.43983 11.4751 2.41308 11.1407 2.35979 10.81C2.30975 10.5001 2.18251 10.2078 1.98979 9.95999C1.80291 9.75362 1.58738 9.57513 1.34979 9.42999C1.13786 9.31416 0.945508 9.16568 0.779788 8.98999C0.654272 8.80491 0.594417 8.58309 0.609788 8.35999C0.597081 8.17477 0.636189 7.98966 0.722731 7.82541C0.809273 7.66116 0.939832 7.52424 1.09979 7.42999C1.41032 7.25075 1.69893 7.03597 1.95979 6.78999C2.13966 6.60047 2.26416 6.36529 2.31979 6.10999C2.39315 5.81539 2.4334 5.51352 2.43979 5.20999C2.43979 4.87999 2.43979 4.09999 2.48979 2.84999C2.47629 2.50594 2.53546 2.16292 2.66345 1.84328C2.79143 1.52363 2.98535 1.23456 3.23256 0.994894C3.47977 0.755233 3.77471 0.570369 4.09817 0.452357C4.42163 0.334345 4.76632 0.285837 5.10979 0.309992C5.92979 0.309992 6.33979 0.649992 6.33979 1.30999C6.35289 1.5622 6.28261 1.81171 6.13979 2.01999C6.07779 2.10474 5.99846 2.17532 5.90708 2.22704C5.8157 2.27877 5.71436 2.31045 5.60979 2.31999C5.37078 2.34093 5.13898 2.41252 4.92979 2.52999C4.85331 2.5915 4.79127 2.66906 4.74807 2.75719C4.70487 2.84532 4.68156 2.94186 4.67979 3.03999C4.62376 3.53799 4.59704 4.03886 4.59979 4.53999C4.60133 5.13243 4.55787 5.72413 4.46979 6.30999C4.41384 6.72834 4.26337 7.12845 4.02979 7.47999C3.78629 7.82754 3.47294 8.12045 3.10979 8.33999Z" fill="black"/>
<path d="M21.9302 7.45997C21.6966 7.10843 21.5462 6.70832 21.4902 6.28997C21.4021 5.70412 21.3587 5.11241 21.3602 4.51997C21.3629 4.01884 21.3362 3.51797 21.2802 3.01997C21.2784 2.92184 21.2551 2.8253 21.2119 2.73717C21.1687 2.64904 21.1067 2.57148 21.0302 2.50997C20.821 2.3925 20.5892 2.32091 20.3502 2.29997C20.2456 2.29043 20.1443 2.25875 20.0529 2.20702C19.9615 2.1553 19.8822 2.08472 19.8202 1.99997C19.6774 1.79169 19.6071 1.54218 19.6202 1.28997C19.6202 0.629973 20.0302 0.289973 20.8502 0.289973C21.1937 0.265817 21.5384 0.314325 21.8618 0.432337C22.1853 0.550349 22.4802 0.735213 22.7274 0.974875C22.9746 1.21454 23.1686 1.50361 23.2965 1.82326C23.4245 2.1429 23.4837 2.48593 23.4702 2.82997C23.4702 4.07997 23.4702 4.82997 23.5202 5.18997C23.5266 5.4935 23.5668 5.79537 23.6402 6.08997C23.6958 6.34527 23.8203 6.58045 24.0002 6.76997C24.2611 7.01595 24.5497 7.23073 24.8602 7.40997C25.0202 7.50422 25.1507 7.64114 25.2373 7.8054C25.3238 7.96965 25.3629 8.15475 25.3502 8.33997C25.3656 8.56307 25.3057 8.78489 25.1802 8.96997C25.0145 9.14566 24.8221 9.29414 24.6102 9.40997C24.3726 9.55511 24.1571 9.7336 23.9702 9.93997C23.7775 10.1878 23.6502 10.4801 23.6002 10.79C23.5469 11.1206 23.5202 11.455 23.5202 11.79C23.5202 12.3 23.5202 12.98 23.4702 13.79C23.4737 14.2572 23.3603 14.7178 23.1402 15.13C22.9227 15.5128 22.6 15.8252 22.2102 16.03C21.7901 16.247 21.323 16.357 20.8502 16.35C20.0302 16.35 19.6202 16.0166 19.6202 15.35C19.6084 15.0995 19.6825 14.8526 19.8302 14.65C19.8914 14.5658 19.9691 14.495 20.0585 14.4417C20.1478 14.3884 20.2471 14.3538 20.3502 14.34C20.5367 14.3163 20.7208 14.2762 20.9002 14.22C21.0218 14.1683 21.1186 14.0715 21.1702 13.95C21.2628 13.7631 21.3139 13.5584 21.3202 13.35C21.3406 12.9436 21.3406 12.5364 21.3202 12.13C21.3089 11.5206 21.3524 10.9115 21.4502 10.31C21.5461 9.89366 21.734 9.50412 22.0002 9.16997C22.2571 8.83898 22.5722 8.5577 22.9302 8.33997C22.5361 8.1239 22.1946 7.8234 21.9302 7.45997Z" fill="black"/>
</svg>
