<svg width="500" height="500" viewBox="0 0 500 500" fill="none" xmlns="http://www.w3.org/2000/svg">
<rect width="500" height="500" rx="250" fill="white"/>
<path d="M349.121 394.727L257.621 281.011L345.356 196.101C346.988 194.406 346.423 189.511 342.03 189.511H298.602C296.405 189.511 294.209 190.641 292.012 192.837L208.985 276.744V84.7068C208.985 81.5689 207.416 80 204.278 80H171.707C168.569 80 167 81.5689 167 84.7068V396.61C167 399.748 168.569 401.317 171.707 401.317H204.278C207.416 401.317 208.985 399.748 208.985 396.61V328.205L228.314 309.817L297.66 398.053C299.543 400.25 301.74 401.38 304.25 401.38H346.235C348.431 401.38 349.686 400.752 350 399.497L349.121 394.727Z" fill="#0EA5E9"/>
</svg>
