<svg width="64" height="64" viewBox="0 0 64 64" fill="none" xmlns="http://www.w3.org/2000/svg">
<g clip-path="url(#clip0_21_55)">
<path d="M0 32V64H32H64V32V-3.33786e-06H32H0V32ZM22.6667 28.6667V41.3333H28.6667C34.1333 41.3333 34.6667 41.6 34.6667 44.6667C34.6667 47.8667 34.4 48 25.3333 48H16V32V16H19.3333C22.6667 16 22.6667 16 22.6667 28.6667ZM48 18.6667C48 20.4 47.0667 21.3333 45.3333 21.3333C43.6 21.3333 42.6667 20.4 42.6667 18.6667C42.6667 16.9333 43.6 16 45.3333 16C47.0667 16 48 16.9333 48 18.6667ZM41.3333 25.3333C41.3333 27.0667 40.4 28 38.6667 28C36.9333 28 36 27.0667 36 25.3333C36 23.6 36.9333 22.6667 38.6667 22.6667C40.4 22.6667 41.3333 23.6 41.3333 25.3333ZM34.6667 32C34.6667 33.7333 33.7333 34.6667 32 34.6667C30.2667 34.6667 29.3333 33.7333 29.3333 32C29.3333 30.2667 30.2667 29.3333 32 29.3333C33.7333 29.3333 34.6667 30.2667 34.6667 32ZM41.3333 38.6667C41.3333 40.4 40.4 41.3333 38.6667 41.3333C36.9333 41.3333 36 40.4 36 38.6667C36 36.9333 36.9333 36 38.6667 36C40.4 36 41.3333 36.9333 41.3333 38.6667ZM48 45.3333C48 47.0667 47.0667 48 45.3333 48C43.6 48 42.6667 47.0667 42.6667 45.3333C42.6667 43.6 43.6 42.6667 45.3333 42.6667C47.0667 42.6667 48 43.6 48 45.3333Z" fill="black"/>
</g>
<defs>
<clipPath id="clip0_21_55">
<rect width="64" height="64" fill="white"/>
</clipPath>
</defs>
</svg>
