<svg width="128" height="128" viewBox="0 0 128 128" fill="none" xmlns="http://www.w3.org/2000/svg">
<path opacity="0.9" d="M63.974 63.784H125.064M63.974 63.784L107.171 20.588M63.974 63.784V2.69397M63.974 63.784L20.778 20.588M63.974 63.784H2.88403M63.974 63.784L20.778 106.981M63.974 63.784V124.874M63.974 63.784L107.171 106.981" stroke="black" stroke-width="0.856" stroke-miterlimit="7.976" stroke-linecap="round" stroke-linejoin="round" stroke-dasharray="0.41 0.81"/>
<path opacity="0.9" d="M70.7641 63.784L70.5621 62.141L69.9691 60.598L69.0201 59.243L67.7701 58.158L66.2961 57.407L64.6861 57.034L63.0321 57.064L61.4331 57.493L59.9861 58.294L58.7771 59.422L57.8771 60.81L57.3381 62.375L57.1931 64.024L57.4521 65.658L58.0981 67.181L59.0921 68.502L60.3781 69.543L61.8781 70.241L63.5011 70.557L65.1541 70.471L66.7361 69.987L68.1541 69.135L69.3241 67.965L70.1751 66.548L70.6591 64.966L70.7641 63.784Z" stroke="black" stroke-width="0.856" stroke-miterlimit="199.409" stroke-linecap="square" stroke-linejoin="round" stroke-dasharray="0.41 0.81"/>
<path opacity="0.9" d="M84.3391 63.784L84.1411 60.951L83.5511 58.172L82.5781 55.503L81.2451 52.994L79.5751 50.695L77.6021 48.651L75.3641 46.901L72.9031 45.481L70.2701 44.417L67.5121 43.729L64.6871 43.432L61.8471 43.531L59.0501 44.025L56.3481 44.902L53.7941 46.148L51.4381 47.736L49.3271 49.637L47.5011 51.814L45.9951 54.222L44.8401 56.818L44.0581 59.548L43.6621 62.362V65.204L44.0581 68.018L44.8401 70.748L45.9951 73.344L47.5011 75.752L49.3271 77.929L51.4381 79.831L53.7941 81.419L56.3481 82.664L59.0501 83.541L61.8481 84.035L64.6881 84.135L67.5121 83.837L70.2701 83.15L72.9031 82.085L75.3641 80.665L77.6021 78.915L79.5751 76.871L81.2451 74.572L82.5781 72.062L83.5501 69.394L84.1411 66.615L84.3391 63.784Z" stroke="black" stroke-width="0.856" stroke-miterlimit="199.409" stroke-linecap="square" stroke-linejoin="round" stroke-dasharray="0.41 0.81"/>
<path opacity="0.9" d="M97.9141 63.784L97.7291 60.236L97.1741 56.727L96.2541 53.297L94.9821 49.98L93.3691 46.814L91.4341 43.836L89.1981 41.074L86.6861 38.563L83.9251 36.327L80.9461 34.392L77.7811 32.779L74.4641 31.506L71.0341 30.587L67.5241 30.032L63.9761 29.847L60.4281 30.032L56.9201 30.587L53.4901 31.507L50.1721 32.779L47.0071 34.392L44.0281 36.327L41.2671 38.563L38.7551 41.074L36.5191 43.836L34.5841 46.814L32.9711 49.98L31.6981 53.297L30.7791 56.727L30.2241 60.236L30.0391 63.784L30.2241 67.332L30.7791 70.841L31.6991 74.271L32.9711 77.588L34.5841 80.754L36.5191 83.732L38.7551 86.494L41.2671 89.005L44.0281 91.241L47.0071 93.176L50.1721 94.79L53.4891 96.062L56.9191 96.982L60.4291 97.537L63.9761 97.722L67.5251 97.537L71.0331 96.981L74.4631 96.062L77.7811 94.79L80.9461 93.176L83.9251 91.241L86.6861 89.005L89.1981 86.494L91.4341 83.732L93.3691 80.754L94.9821 77.588L96.2541 74.271L97.1741 70.841L97.7291 67.332L97.9141 63.784Z" stroke="black" stroke-width="0.856" stroke-miterlimit="199.409" stroke-linecap="square" stroke-linejoin="round" stroke-dasharray="0.41 0.81"/>
<path opacity="0.9" d="M111.489 63.784L111.229 58.818L110.449 53.907L109.163 49.103L107.381 44.461L105.124 40.029L102.415 35.858L99.2851 31.992L95.7691 28.475L91.9031 25.345L87.7321 22.636L83.3001 20.38L78.6581 18.599L73.8541 17.312L68.9421 16.533L63.9761 16.273L59.0101 16.533L54.1001 17.312L49.2951 18.599L44.6531 20.38L40.2211 22.637L36.0511 25.347L32.1841 28.477L28.6671 31.993L25.5371 35.859L22.8291 40.029L20.5721 44.462L18.7901 49.104L17.5031 53.908L16.7251 58.819L16.4641 63.785L16.7241 68.751L17.5031 73.662L18.7901 78.467L20.5721 83.109L22.8291 87.54L25.5381 91.711L28.6681 95.577L32.1841 99.094L36.0501 102.224L40.2211 104.933L44.6531 107.19L49.2951 108.971L54.0991 110.259L59.0101 111.037L63.9761 111.297L68.9421 111.037L73.8541 110.259L78.6581 108.971L83.3001 107.19L87.7321 104.933L91.9021 102.223L95.7691 99.094L99.2851 95.577L102.415 91.711L105.125 87.541L107.381 83.109L109.163 78.467L110.45 73.662L111.228 68.752L111.489 63.784Z" stroke="black" stroke-width="0.856" stroke-miterlimit="199.409" stroke-linecap="square" stroke-linejoin="round" stroke-dasharray="0.41 0.81"/>
<path d="M64 126C47.44 126 31.87 119.551 20.16 107.841C8.45 96.131 2 80.561 2 64C2 47.439 8.449 31.87 20.159 20.159C31.869 8.448 47.439 2 64 2C80.561 2 96.131 8.449 107.841 20.159C119.551 31.869 126 47.439 126 64C126 80.561 119.551 96.131 107.841 107.841C96.131 119.551 80.561 126 64 126ZM64 3.82C47.926 3.82 32.813 10.08 21.447 21.446C10.08 32.813 3.82 47.925 3.82 64C3.82 80.075 10.08 95.188 21.446 106.554C32.812 117.92 47.925 124.18 64 124.18C80.075 124.18 95.188 117.92 106.554 106.554C117.92 95.188 124.18 80.075 124.18 64C124.18 47.925 117.92 32.813 106.554 21.446C95.187 10.08 80.075 3.82 64 3.82Z" fill="black"/>
<path opacity="0.6" d="M63.9751 63.784L64.1041 63.742L64.2331 63.7L64.3621 63.658L64.4911 63.616L64.6201 63.574L64.7491 63.532L64.8781 63.49L65.0071 63.448L65.1361 63.406L65.2651 63.364L65.3941 63.322L65.5231 63.28L65.6521 63.238L65.7811 63.196L65.9101 63.154L66.0391 63.112L66.1681 63.07L66.2971 63.028L66.4261 62.986L66.5551 62.944L66.6841 62.902L66.8131 62.86L66.9421 62.818L67.0711 62.776L67.2001 62.734L67.3291 62.692L67.4581 62.65L67.5871 62.608L67.7161 62.566L67.8451 62.524L67.9741 62.482L68.1031 62.44L68.2321 62.398L68.3611 62.356L68.4901 62.314L68.6191 62.272L68.7481 62.23L68.8771 62.188L69.0061 62.146L69.1351 62.104L69.2641 62.062L69.3931 62.02L69.5221 61.978L69.6511 61.936L69.7801 61.894L69.9091 61.852L70.0381 61.81L70.1671 61.768L70.2961 61.726L70.4251 61.684L70.5541 61.642L70.6831 61.6L70.8121 61.558L70.9411 61.516L71.0701 61.474L71.1991 61.432L71.3281 61.39L71.4571 61.348L71.5861 61.306L71.7151 61.264L71.8441 61.222L71.9731 61.18L72.1021 61.138L72.2311 61.096L72.3601 61.054L72.4891 61.012L72.6181 60.97L72.7471 60.928L72.8761 60.886L73.0051 60.844L73.1341 60.802L73.2631 60.76L73.3921 60.718L73.5211 60.676L73.6501 60.634L73.7791 60.592L73.9081 60.55L74.0371 60.508L74.1661 60.466L74.2951 60.424L74.4241 60.382L74.5531 60.34L74.6821 60.298L74.8111 60.256L74.9401 60.214L75.0691 60.172L75.1981 60.13L75.3271 60.088L75.4561 60.046L75.5851 60.004L75.7141 59.962L75.8431 59.92L75.9721 59.878L76.1011 59.836L76.2301 59.794L76.3591 59.752L76.4881 59.71L76.6171 59.668L76.7461 59.626L76.8751 59.584L76.9001 59.63L76.9131 59.671L76.9261 59.712L76.9391 59.753L76.9521 59.794L76.9651 59.835L76.9771 59.876L76.9891 59.917L77.0001 59.956L77.0121 59.997L77.0241 60.038L77.0361 60.079L77.0481 60.12L77.0591 60.161L77.0701 60.202L77.0811 60.243L77.0921 60.284L77.1031 60.325L77.1141 60.366L77.1251 60.407L77.1361 60.448L77.1461 60.489L77.1561 60.53L77.1661 60.571L77.1761 60.612L77.1861 60.653L77.1961 60.695L77.2061 60.737L77.2151 60.779L77.2241 60.821L77.2331 60.863L77.2421 60.905L77.2511 60.947L77.2601 60.989L77.2691 61.031L77.2781 61.073L77.2871 61.115L77.2951 61.157L77.3031 61.199L77.3111 61.241L77.3191 61.283L77.3271 61.325L77.3351 61.367L77.3421 61.409L77.3491 61.451L77.3561 61.493L77.3631 61.535L77.3701 61.577L77.3771 61.619L77.3841 61.661L77.3911 61.703L77.3981 61.745L77.4041 61.787L77.4101 61.829L77.4161 61.871L77.4221 61.913L77.4281 61.955L77.4341 61.997L77.4401 62.039L77.4451 62.081L77.4501 62.123L77.4551 62.165L77.4601 62.207L77.4651 62.249L77.4701 62.291L77.4751 62.333L77.4801 62.375L77.4841 62.417L77.4881 62.459L77.4921 62.501L77.4961 62.543L77.5001 62.585L77.5041 62.627L77.5081 62.67L77.5111 62.713L77.5141 62.756L77.5171 62.799L77.5201 62.842L77.5231 62.885L77.5261 62.928L77.5291 62.971L77.5321 63.014L77.5341 63.057L77.5361 63.1L77.5381 63.143L77.5401 63.186L77.5421 63.229L77.5441 63.272L77.5461 63.315L77.5471 63.358L77.5481 63.401L77.5491 63.444L77.5501 63.487L77.5511 63.53L77.5521 63.573L77.5531 63.616V63.788H64.1101L63.9751 63.784Z" fill="black"/>
<path opacity="0.6" d="M63.9751 63.784L64.1181 63.403L64.2611 63.022L64.4041 62.641L64.5471 62.26L64.6901 61.879L64.8331 61.498L64.9761 61.117L65.1191 60.736L65.2621 60.355L65.4051 59.974L65.5481 59.593L65.6911 59.212L65.8341 58.831L65.9771 58.45L66.1201 58.069L66.2631 57.688L66.4061 57.307L66.5491 56.926L66.6921 56.545L66.8351 56.164L66.9781 55.783L67.1211 55.402L67.2641 55.021L67.4071 54.64L67.5501 54.259L67.6931 53.878L67.8361 53.497L67.9791 53.116L68.1221 52.735L68.2651 52.354L68.4081 51.973L68.5511 51.592L68.6941 51.211L68.8371 50.83L68.9801 50.449L69.1231 50.068L69.2661 49.687L69.4091 49.306L69.5521 48.925L69.6951 48.544L69.8381 48.163L69.9811 47.782L70.1241 47.401L70.2671 47.02L70.4101 46.639L70.5531 46.258L70.6961 45.877L70.8391 45.496L70.9821 45.115L71.1251 44.734L71.2681 44.353L71.4111 43.972L71.5541 43.591L71.6971 43.21L71.8401 42.829L71.9831 42.448L72.1261 42.067L72.2691 41.686L72.4121 41.305L72.5551 40.924L72.6981 40.543L72.8411 40.162L72.9841 39.781L73.1271 39.4L73.2701 39.019L73.4131 38.638L73.5561 38.257L73.6991 37.876L73.8421 37.495L73.9851 37.114L74.1281 36.733L74.2711 36.352L74.4141 35.971L74.5571 35.59L74.7001 35.209L74.8431 34.828L74.9861 34.447L75.1291 34.066L75.2721 33.685L75.4151 33.304L75.5581 32.923L75.7011 32.542L75.8441 32.161L75.9871 31.78L76.1301 31.399L76.2731 31.018L76.4161 30.637L76.5591 30.256L76.7021 29.875L76.8451 29.494L76.9881 29.113L77.1311 28.732L77.2741 28.351L77.4171 27.97L77.5601 27.589L77.7031 27.208L77.8461 26.827L78.0001 26.416L78.1431 26.035L78.2861 25.654L78.4061 25.699L78.5261 25.745L78.6451 25.791L78.7641 25.837L78.8831 25.884L79.0021 25.931L79.1211 25.978L79.2401 26.026L79.3591 26.074L79.4771 26.123L79.5951 26.172L79.7131 26.221L79.8311 26.271L79.9491 26.321L80.0671 26.371L80.1841 26.422L80.3011 26.473L80.4181 26.524L80.5351 26.576L80.6521 26.628L80.7691 26.681L80.8851 26.734L81.0011 26.787L81.1171 26.841L81.2331 26.895L81.3491 26.949L81.4651 27.004L81.5801 27.059L81.6951 27.114L81.8101 27.17L81.9251 27.226L82.0401 27.283L82.1551 27.34L82.2691 27.397L82.3831 27.455L82.4971 27.513L82.6111 27.571L82.7251 27.63L82.8381 27.689L82.9511 27.748L83.0641 27.808L83.1771 27.868L83.2901 27.929L83.4031 27.99L83.5151 28.051L83.6271 28.113L83.7391 28.175L83.8511 28.237L83.9631 28.3L84.0741 28.363L84.1851 28.426L84.2961 28.49L84.4071 28.554L84.5181 28.618L84.6281 28.683L84.7381 28.748L84.8481 28.813L84.9581 28.879L85.0681 28.945L85.1771 29.011L85.2861 29.078L85.3951 29.145L85.5041 29.212L85.6121 29.28L85.7201 29.348L85.8281 29.416L85.9361 29.485L86.0441 29.554L86.1511 29.623L86.2581 29.693L86.3651 29.763L86.4721 29.834L86.5791 29.905L86.6851 29.976L86.7911 30.048L86.8971 30.12L87.0031 30.192L87.1081 30.265L87.2131 30.338L87.3181 30.411L87.4231 30.485L87.5271 30.559L87.6311 30.633L87.7351 30.707L87.8391 30.782L87.9431 30.857L88.0461 30.932L88.1491 31.008L88.2521 31.084L88.3551 31.16L88.4571 31.237L88.5591 31.314L88.6611 31.391L88.7631 31.469L88.8641 31.547L88.9651 31.625L89.0661 31.704L89.1671 31.783L89.2671 31.862L89.3671 31.942L89.1131 32.26L88.8591 32.578L88.6051 32.896L88.3511 33.214L88.0971 33.532L87.8431 33.85L87.5891 34.168L87.3351 34.486L87.0811 34.804L86.8271 35.122L86.5731 35.44L86.3191 35.758L86.0651 36.076L85.8131 36.4L85.5591 36.718L85.3051 37.036L85.0511 37.354L84.7971 37.672L84.5431 37.99L84.2901 38.31L84.0361 38.628L83.7821 38.946L83.5281 39.264L83.2741 39.582L83.0201 39.9L82.7661 40.218L82.5121 40.536L82.2581 40.854L82.0041 41.172L81.7501 41.49L81.4961 41.808L81.2421 42.126L80.9881 42.444L80.7341 42.762L80.4801 43.08L80.2261 43.398L79.9721 43.716L79.7181 44.034L79.4641 44.352L79.2101 44.67L78.9561 44.988L78.7021 45.306L78.4481 45.624L78.1941 45.942L77.9401 46.26L77.6861 46.578L77.4321 46.896L77.1781 47.214L76.9241 47.532L76.6701 47.85L76.4161 48.168L76.1641 48.5L75.9101 48.818L75.6561 49.136L75.4021 49.454L75.1481 49.772L74.8941 50.09L74.6401 50.41L74.3861 50.728L74.1321 51.046L73.8781 51.364L73.6241 51.682L73.3701 52L73.1161 52.318L72.8621 52.636L72.6081 52.954L72.3541 53.272L72.1001 53.59L71.8461 53.908L71.5921 54.226L71.3381 54.544L71.0841 54.862L70.8301 55.18L70.5761 55.498L70.3221 55.816L70.0681 56.134L69.8141 56.452L69.5601 56.77L69.3061 57.088L69.0521 57.406L68.8001 57.734L68.5461 58.052L68.2921 58.37L68.0381 58.688L67.7841 59.006L67.5301 59.324L67.2761 59.642L67.0221 59.96L66.7681 60.278L66.5141 60.596L66.2601 60.914L66.0061 61.232L65.7521 61.55L65.4981 61.868L65.2441 62.186L64.9901 62.504L64.7361 62.822L64.4821 63.14L64.2281 63.458L63.9751 63.784Z" fill="black"/>
<path opacity="0.6" d="M63.9751 63.784L63.6271 63.367L63.2791 62.95L62.9311 62.533L62.5831 62.116L62.2351 61.699L61.8871 61.282L61.5391 60.865L61.1911 60.448L60.8431 60.031L60.4951 59.614L60.1471 59.197L59.7991 58.78L59.4511 58.363L59.1031 57.946L58.7551 57.529L58.4071 57.112L58.0591 56.695L57.7111 56.278L57.3631 55.861L57.0151 55.444L56.6671 55.027L56.3191 54.61L55.9711 54.193L55.6231 53.776L55.2751 53.359L54.9271 52.942L54.5791 52.525L54.2311 52.108L53.8831 51.691L53.5351 51.274L53.1871 50.857L52.8391 50.44L52.4911 50.023L52.1431 49.606L51.7951 49.189L51.4471 48.772L51.0991 48.355L50.7511 47.938L50.4031 47.521L50.0551 47.104L49.7071 46.687L49.3591 46.27L49.0111 45.853L48.6631 45.436L48.3151 45.019L47.9671 44.602L47.6191 44.185L47.2711 43.768L46.9231 43.351L46.5751 42.934L46.2271 42.517L45.8791 42.1L45.5311 41.683L45.1831 41.266L44.8351 40.849L44.4871 40.432L44.1391 40.015L43.7911 39.598L43.4431 39.181L43.0951 38.764L42.7471 38.347L42.3991 37.93L42.0511 37.513L41.7031 37.096L41.3551 36.679L41.0071 36.262L40.6591 35.845L40.3111 35.428L39.9631 35.011L39.6151 34.594L39.2671 34.177L38.9191 33.76L38.5711 33.343L38.2231 32.926L37.8751 32.509L37.5271 32.092L37.1791 31.675L36.8311 31.258L36.4831 30.841L36.1351 30.424L35.7871 30.007L35.4391 29.59L35.0911 29.173L34.7431 28.756L34.3951 28.339L34.0471 27.922L33.6991 27.505L33.3511 27.088L33.0031 26.671L32.6551 26.254L32.3071 25.837L31.9591 25.42L31.6111 25.003L31.2621 24.6L30.9141 24.183L30.5661 23.766L30.2181 23.349L29.8701 22.932L29.5221 22.515L29.1741 22.098L29.3711 21.934L29.5691 21.771L29.7671 21.609L29.9661 21.448L30.1661 21.288L30.3671 21.129L30.5681 20.971L30.7701 20.814L30.9731 20.658L31.1771 20.503L31.3811 20.349L31.5861 20.196L31.7921 20.044L31.9981 19.893L32.2051 19.743L32.4131 19.594L32.6221 19.446L32.8311 19.299L33.0411 19.153L33.2521 19.008L33.4631 18.864L33.6751 18.721L33.8881 18.579L34.1011 18.438L34.3151 18.298L34.5301 18.159L34.7451 18.021L34.9611 17.884L35.1781 17.748L35.3951 17.613L35.6131 17.479L35.8321 17.346L36.0511 17.214L36.2711 17.083L36.4911 16.953L36.7121 16.824L36.9341 16.696L37.1561 16.569L37.3791 16.443L37.6021 16.318L37.8261 16.194L38.0511 16.071L38.2761 15.949L38.5021 15.828L38.7281 15.708L38.9551 15.59L39.1821 15.473L39.4101 15.357L39.6381 15.242L39.8671 15.128L40.0971 15.015L40.3271 14.903L40.5581 14.792L40.7891 14.682L41.0211 14.573L41.2531 14.465L41.4861 14.358L41.7191 14.253L41.9531 14.149L42.1871 14.046L42.4221 13.944L42.6571 13.843L42.8931 13.743L43.1291 13.644L43.3661 13.546L43.6031 13.449L43.8401 13.354L44.0781 13.26L44.3161 13.167L44.5551 13.075L44.7941 12.984L45.0341 12.894L45.2741 12.805L45.5141 12.717L45.7551 12.631L45.9961 12.546L46.2381 12.462L46.4801 12.379L46.7221 12.297L46.9651 12.216L47.2081 12.136L47.4521 12.058L47.6961 11.981L47.9401 11.905L48.1851 11.83L48.4301 11.756L48.6751 11.683L48.9211 11.611L49.1671 11.541L49.4131 11.472L49.6601 11.404L49.9071 11.337L50.1541 11.271L50.4021 11.206L50.6501 11.143L50.8981 11.081L51.1471 11.02L51.3961 10.96L51.6451 10.901L51.8941 10.843L52.0151 11.372L52.1361 11.901L52.2571 12.43L52.3781 12.959L52.4991 13.488L52.6201 14.017L52.7411 14.546L52.8621 15.075L52.9831 15.604L53.1041 16.133L53.2251 16.662L53.3461 17.191L53.4671 17.72L53.5881 18.249L53.7091 18.778L53.8301 19.307L53.9511 19.836L54.0721 20.365L54.1931 20.894L54.3141 21.423L54.4351 21.952L54.5561 22.481L54.6771 23.01L54.7981 23.539L54.9191 24.068L55.0401 24.597L55.1611 25.126L55.2821 25.655L55.4031 26.184L55.5241 26.713L55.6451 27.242L55.7661 27.771L55.8871 28.3L56.0001 28.843L56.1211 29.372L56.2421 29.901L56.3631 30.43L56.4841 30.959L56.6051 31.488L56.7261 32.017L56.8471 32.546L56.9681 33.075L57.0891 33.604L57.2101 34.133L57.3311 34.662L57.4521 35.191L57.5731 35.72L57.6941 36.249L57.8151 36.778L57.9361 37.307L58.0571 37.836L58.1781 38.365L58.2991 38.894L58.4201 39.423L58.5411 39.952L58.6621 40.481L58.7831 41.01L58.9041 41.539L59.0251 42.068L59.1461 42.597L59.2671 43.126L59.3881 43.655L59.5091 44.184L59.6301 44.713L59.7511 45.242L59.8721 45.771L59.9931 46.3L60.1141 46.829L60.2351 47.358L60.3561 47.887L60.4771 48.416L60.5981 48.945L60.7191 49.474L60.8401 50.003L60.9611 50.532L61.0821 51.061L61.2031 51.59L61.3241 52.119L61.4451 52.648L61.5661 53.177L61.6871 53.706L61.8081 54.235L61.9291 54.764L62.0501 55.293L62.1711 55.822L62.2921 56.351L62.4131 56.88L62.5341 57.409L62.6551 57.938L62.7761 58.467L62.8971 58.996L63.0181 59.525L63.1391 60.054L63.2601 60.583L63.3811 61.112L63.5021 61.641L63.6231 62.17L63.7441 62.699L63.8651 63.228L63.9751 63.784Z" fill="black"/>
<path opacity="0.6" d="M63.9749 63.784L63.5069 63.869L63.0389 63.954L62.5709 64.039L62.1029 64.124L61.6349 64.209L61.1669 64.294L60.6989 64.379L60.2309 64.464L59.7629 64.549L59.2999 64.632L58.8319 64.717L58.3639 64.802L57.8959 64.887L57.4279 64.972L56.9599 65.057L56.4919 65.142L56.0239 65.227L55.5559 65.312L55.0879 65.397L54.6199 65.482L54.1519 65.567L53.6899 65.65L53.2219 65.735L52.7539 65.82L52.2859 65.905L51.8199 65.99L51.3519 66.075L50.8839 66.16L50.4159 66.245L49.9479 66.33L49.4799 66.415L49.0119 66.5L48.5439 66.585L48.0759 66.67L47.6079 66.755L47.1399 66.84L46.6719 66.925L46.2039 67.01L45.7359 67.095L45.2679 67.18L44.7999 67.265L44.3319 67.35L43.8639 67.435L43.3959 67.52L42.9279 67.605L42.4599 67.69L41.9919 67.775L41.5239 67.86L41.0559 67.945L40.5999 68.026L40.1319 68.111L39.6639 68.196L39.1959 68.281L38.7279 68.366L38.2599 68.451L37.7919 68.536L37.3239 68.621L36.8559 68.706L36.3879 68.791L35.9199 68.876L35.4519 68.961L34.9839 69.046L34.5159 69.131L34.0479 69.216L33.5799 69.301L33.1119 69.386L32.6439 69.471L32.1759 69.556L31.7079 69.641L31.2399 69.726L30.7719 69.811L30.3039 69.896L29.8359 69.981L29.3679 70.066L28.8999 70.151L28.4319 70.236L27.9639 70.321L27.4959 70.406L27.0279 70.491L26.5599 70.576L26.0919 70.661L25.6239 70.746L25.1559 70.831L24.6879 70.916L24.2199 71.001L23.7699 71.08L23.3019 71.165L22.8339 71.25L22.3659 71.335L21.8999 71.42L21.4319 71.505L20.9639 71.59L20.4959 71.675L20.0279 71.76L19.5599 71.845L19.0919 71.93L18.6239 72.015L18.1559 72.1L17.6879 72.185L17.2199 72.27L17.1679 71.976L17.1169 71.682L17.0679 71.387L17.0209 71.092L16.9759 70.797L16.9379 70.5L16.8969 70.204L16.8579 69.908L16.8199 69.612L16.7839 69.316L16.7499 69.019L16.7179 68.722L16.6879 68.425L16.6599 68.128L16.6339 67.831L16.6099 67.533L16.5869 67.235L16.5659 66.937L16.5469 66.639L16.5299 66.341L16.5149 66.043L16.5019 65.745L16.4909 65.447L16.4819 65.149L16.4739 64.851L16.4679 64.553L16.4639 64.254L16.4619 63.955V63.656L16.4639 63.357L16.4679 63.058L16.4729 62.76L16.4799 62.462L16.4889 62.164L16.4999 61.866L16.5129 61.568L16.5279 61.27L16.5449 60.972L16.5639 60.674L16.5839 60.376L16.6059 60.078L16.6299 59.78L16.6559 59.483L16.6839 59.186L16.7139 58.889L16.7459 58.592L16.7799 58.295L16.8149 57.999L16.8519 57.703L16.8909 57.407L16.9319 57.111L16.9749 56.816L17.0199 56.521L17.0669 56.226L17.1149 55.931L17.1649 55.637L17.2169 55.343L17.2709 55.049L17.3269 54.756L17.3849 54.463L17.4439 54.17L17.5049 53.878L17.5679 53.586L17.6329 53.295L17.6999 53.004L17.7689 52.713L17.8389 52.423L17.9109 52.133L17.9849 51.844L18.0609 51.555L18.1389 51.267L18.2189 50.979L18.2999 50.692L18.3829 50.405L18.4679 50.119L18.5549 49.833L18.6439 49.548L18.7339 49.263L18.8259 48.979L18.9199 48.696L19.0159 48.413L19.1129 48.131L19.2119 47.849L19.3129 47.568L19.4159 47.288L19.5209 47.008L19.6269 46.729L19.7349 46.451L19.8449 46.173L19.9569 45.896L20.0699 45.62L20.1849 45.344L20.3019 45.069L20.4199 44.795L20.5399 44.522L20.6619 44.249L20.7859 43.977L20.9109 43.706L21.0379 43.436L21.1669 43.167L21.5949 43.373L22.0229 43.579L22.4509 43.785L22.8789 43.991L23.3069 44.197L23.7349 44.403L24.1629 44.609L24.5909 44.815L25.0189 45.021L25.4469 45.227L25.8749 45.433L26.3029 45.639L26.7309 45.845L27.1589 46.051L27.5869 46.257L28.0149 46.463L28.4429 46.669L28.8709 46.875L29.2989 47.081L29.7269 47.287L30.1549 47.493L30.5829 47.699L31.0109 47.905L31.4389 48.111L31.8669 48.317L32.2949 48.523L32.7229 48.729L33.1509 48.935L33.5789 49.141L34.0069 49.347L34.4349 49.553L34.8629 49.759L35.2909 49.965L35.7189 50.171L36.1469 50.377L36.5749 50.583L37.0029 50.789L37.4309 50.995L37.8589 51.201L38.2869 51.407L38.7149 51.613L39.1429 51.819L39.5709 52.025L39.9989 52.231L40.4269 52.437L40.8549 52.643L41.2829 52.849L41.7109 53.055L42.1389 53.261L42.5669 53.467L42.9949 53.673L43.4229 53.879L43.8509 54.085L44.2789 54.291L44.7069 54.497L45.1349 54.703L45.5629 54.909L45.9909 55.115L46.4189 55.321L46.8469 55.527L47.2749 55.733L47.7029 55.939L48.1309 56.145L48.5589 56.351L48.9869 56.557L49.4149 56.763L49.8429 56.969L50.2709 57.175L50.6989 57.381L51.1269 57.587L51.5549 57.793L51.9829 57.999L52.4109 58.205L52.8389 58.411L53.2669 58.617L53.6949 58.823L54.1229 59.029L54.5509 59.235L54.9789 59.441L55.4069 59.647L55.8349 59.853L56.2629 60.059L56.6909 60.265L57.1189 60.471L57.5469 60.677L57.9749 60.883L58.4029 61.089L58.8309 61.295L59.2589 61.501L59.6869 61.707L60.1149 61.913L60.5429 62.119L60.9709 62.325L61.3989 62.531L61.8269 62.737L62.2549 62.943L62.6829 63.149L63.1109 63.355L63.5389 63.561L63.9749 63.784Z" fill="black"/>
<path opacity="0.6" d="M63.975 63.784L63.752 63.939L63.529 64.094L63.306 64.249L63.083 64.404L62.86 64.559L62.637 64.714L62.414 64.869L62.19 65.02L61.967 65.175L61.744 65.33L61.521 65.485L61.298 65.64L61.075 65.795L60.852 65.95L60.629 66.105L60.406 66.26L60.183 66.415L59.96 66.57L59.737 66.725L59.514 66.88L59.291 67.035L59.068 67.19L58.845 67.345L58.622 67.5L58.399 67.655L58.176 67.81L57.953 67.965L57.73 68.12L57.507 68.275L57.284 68.43L57.061 68.585L56.838 68.74L56.615 68.895L56.392 69.05L56.169 69.205L55.946 69.36L55.723 69.515L55.5 69.67L55.277 69.825L55.054 69.98L54.831 70.135L54.608 70.29L54.385 70.445L54.162 70.6L53.939 70.755L53.716 70.91L53.493 71.065L53.27 71.22L53.047 71.375L52.824 71.53L52.601 71.685L52.378 71.84L52.155 71.995L51.932 72.15L51.7 72.287L51.477 72.442L51.254 72.597L51.031 72.752L50.808 72.907L50.585 73.062L50.362 73.217L50.139 73.372L49.916 73.527L49.693 73.682L49.47 73.837L49.247 73.992L49.024 74.147L48.801 74.302L48.578 74.457L48.355 74.612L48.132 74.767L47.909 74.922L47.686 75.077L47.463 75.232L47.24 75.387L47.017 75.542L46.794 75.697L46.571 75.852L46.348 76.007L46.125 76.162L45.902 76.317L45.679 76.472L45.456 76.627L45.233 76.782L45.01 76.937L44.787 77.092L44.564 77.247L44.341 77.402L44.118 77.557L43.895 77.712L43.672 77.867L43.449 78.022L43.226 78.177L43.003 78.332L42.78 78.487L42.557 78.642L42.334 78.797L42.111 78.952L41.88 79.09L41.657 79.245L41.633 79.21L41.609 79.175L41.585 79.14L41.561 79.105L41.537 79.07L41.513 79.035L41.489 79L41.465 78.965L41.441 78.93L41.417 78.895L41.393 78.86L41.369 78.825L41.345 78.789L41.321 78.753L41.298 78.717L41.275 78.681L41.252 78.645L41.229 78.609L41.206 78.573L41.183 78.537L41.16 78.501L41.137 78.465L41.114 78.429L41.091 78.393L41.068 78.357L41.045 78.321L41.022 78.285L40.999 78.249L40.976 78.213L40.953 78.177L40.93 78.141L40.907 78.105L40.885 78.069L40.863 78.033L40.841 77.997L40.819 77.961L40.797 77.925L40.775 77.889L40.753 77.853L40.731 77.817L40.709 77.78L40.687 77.743L40.665 77.706L40.643 77.669L40.621 77.632L40.599 77.595L40.577 77.558L40.555 77.521L40.533 77.484L40.512 77.447L40.491 77.41L40.47 77.373L40.449 77.336L40.428 77.299L40.407 77.262L40.386 77.225L40.365 77.188L40.344 77.151L40.323 77.114L40.302 77.077L40.281 77.04L40.26 77.003L40.239 76.966L40.218 76.929L40.197 76.892L40.176 76.855L40.155 76.818L40.135 76.781L40.115 76.744L40.095 76.707L40.075 76.669L40.055 76.631L40.035 76.593L40.015 76.555L39.995 76.517L39.975 76.479L39.955 76.441L39.935 76.403L39.915 76.365L39.895 76.327L39.875 76.289L39.855 76.251L39.835 76.213L39.816 76.175L39.797 76.137L39.778 76.099L39.759 76.061L39.74 76.023L39.721 75.985L39.702 75.947L39.683 75.909L39.664 75.871L39.645 75.833L39.626 75.795L39.607 75.757L39.588 75.719L39.569 75.681L39.55 75.64L39.531 75.602L39.512 75.564L39.757 75.446L40.002 75.328L40.247 75.21L40.492 75.092L40.737 74.974L40.982 74.856L41.227 74.738L41.472 74.62L41.717 74.502L41.962 74.384L42.207 74.266L42.452 74.148L42.697 74.03L42.942 73.912L43.187 73.794L43.432 73.676L43.677 73.558L43.922 73.44L44.167 73.322L44.412 73.204L44.657 73.086L44.902 72.968L45.147 72.85L45.392 72.732L45.637 72.614L45.882 72.496L46.127 72.378L46.372 72.26L46.617 72.142L46.862 72.024L47.107 71.906L47.352 71.788L47.597 71.67L47.842 71.552L48.087 71.434L48.332 71.316L48.577 71.198L48.822 71.08L49.067 70.962L49.312 70.844L49.557 70.726L49.802 70.608L50.047 70.49L50.292 70.372L50.537 70.254L50.782 70.136L51.027 70.018L51.272 69.9L51.517 69.782L51.762 69.664L52.007 69.546L52.252 69.428L52.497 69.31L52.742 69.192L52.987 69.074L53.232 68.956L53.477 68.838L53.722 68.72L53.967 68.602L54.212 68.484L54.457 68.366L54.702 68.248L54.947 68.13L55.192 68.012L55.437 67.894L55.682 67.776L55.927 67.658L56.172 67.54L56.417 67.422L56.662 67.304L56.907 67.186L57.152 67.068L57.397 66.95L57.642 66.832L57.887 66.714L58.132 66.596L58.377 66.478L58.622 66.36L58.867 66.242L59.112 66.124L59.357 66.006L59.602 65.888L59.847 65.77L60.092 65.652L60.337 65.534L60.582 65.416L60.827 65.298L61.072 65.18L61.317 65.062L61.562 64.944L61.807 64.826L62.052 64.708L62.297 64.59L62.542 64.472L62.787 64.354L63.032 64.236L63.277 64.118L63.522 64L63.767 63.882L63.975 63.784Z" fill="black"/>
<path opacity="0.6" d="M63.9751 63.784L64.0321 64.119L64.0891 64.454L64.1461 64.789L64.2031 65.124L64.2601 65.459L64.3171 65.794L64.3741 66.129L64.4311 66.464L64.4881 66.799L64.5451 67.134L64.6021 67.469L64.6591 67.804L64.7161 68.139L64.7731 68.474L64.8301 68.809L64.8871 69.144L64.9441 69.479L65.0011 69.814L65.0581 70.149L65.1151 70.484L65.1721 70.819L65.2291 71.154L65.2861 71.489L65.3431 71.824L65.4001 72.159L65.4571 72.494L65.5141 72.829L65.5711 73.164L65.6281 73.499L65.6851 73.834L65.7421 74.169L65.7991 74.504L65.8561 74.839L65.9131 75.174L65.9701 75.509L66.0271 75.844L66.0841 76.179L66.1411 76.514L66.1981 76.849L66.2551 77.184L66.3121 77.519L66.3691 77.854L66.4261 78.189L66.4831 78.524L66.5401 78.859L66.5971 79.194L66.6541 79.529L66.7111 79.864L66.7681 80.199L66.8251 80.534L66.8821 80.869L66.9391 81.204L66.9961 81.539L67.0531 81.874L67.1101 82.209L67.1671 82.544L67.2241 82.879L67.2811 83.214L67.3381 83.549L67.3951 83.884L67.4521 84.219L67.5091 84.554L67.5661 84.889L67.6231 85.224L67.6801 85.559L67.7371 85.894L67.7941 86.229L67.8511 86.564L67.9081 86.899L67.9651 87.234L68.0221 87.569L68.0791 87.904L68.1361 88.239L68.1931 88.574L68.2501 88.909L68.3071 89.244L68.3641 89.579L68.4211 89.914L68.4781 90.249L68.5351 90.584L68.5921 90.919L68.6491 91.254L68.7061 91.589L68.7631 91.924L68.8201 92.259L68.8771 92.594L68.9341 92.929L68.9911 93.264L69.0481 93.599L69.1051 93.934L69.1621 94.269L69.2191 94.604L69.2761 94.939L69.3331 95.274L69.3901 95.609L69.4471 95.944L69.5041 96.279L69.5611 96.614L69.6181 96.949L69.6751 97.284L69.5441 97.306L69.4121 97.328L69.2801 97.349L69.1481 97.37L69.0161 97.39L68.8841 97.409L68.7521 97.428L68.6201 97.446L68.4881 97.464L68.3561 97.481L68.2241 97.498L68.0921 97.514L67.9601 97.53L67.8281 97.545L67.6961 97.56L67.5641 97.574L67.4311 97.588L67.2981 97.601L67.1651 97.614L67.0321 97.626L66.8991 97.638L66.7661 97.649L66.6331 97.66L66.5001 97.67L66.3671 97.68L66.2341 97.689L66.1011 97.698L65.9681 97.706L65.8351 97.713L65.7021 97.72L65.5691 97.727L65.4361 97.733L65.3031 97.738L65.1701 97.743L65.0371 97.747L64.9041 97.751L64.7711 97.754L64.6381 97.757L64.5051 97.759L64.3721 97.761L64.2391 97.762L64.1061 97.763H63.8401L63.7071 97.762L63.5741 97.761L63.4411 97.759L63.3081 97.757L63.1751 97.754L63.0421 97.751L62.9091 97.747L62.7561 97.7L62.6231 97.695L62.4901 97.69L62.3571 97.684L62.2241 97.677L62.0901 97.67L61.9571 97.662L61.8241 97.654L61.6911 97.645L61.5581 97.636L61.4251 97.626L61.2921 97.616L61.1591 97.605L61.0261 97.594L60.8931 97.582L60.7601 97.57L60.6271 97.557L60.4941 97.544L60.3611 97.53L60.2291 97.515L60.0991 97.5L59.9671 97.485L59.8351 97.469L59.7031 97.452L59.5711 97.435L59.4391 97.417L59.3071 97.399L59.1751 97.38L59.0431 97.361L58.9111 97.341L58.7791 97.321L58.6471 97.3L58.5151 97.279L58.3841 97.257L58.2531 97.235L58.1221 97.212L57.9911 97.189L57.8601 97.165L57.7291 97.141L57.5981 97.116L57.4671 97.091L57.3361 97.065L57.2051 97.039L57.0741 97.012L56.9441 96.985L56.8141 96.957L56.6841 96.929L56.5541 96.9L56.4241 96.871L56.5001 96.54L56.5761 96.209L56.6521 95.878L56.7281 95.547L56.8041 95.216L56.8801 94.885L56.9561 94.554L57.0321 94.223L57.1081 93.892L57.1841 93.561L57.2601 93.23L57.3361 92.899L57.4121 92.568L57.4881 92.237L57.5641 91.906L57.6401 91.575L57.7161 91.244L57.7921 90.913L57.8681 90.582L57.9441 90.251L58.0201 89.92L58.0961 89.589L58.1721 89.258L58.2481 88.927L58.3241 88.596L58.4001 88.265L58.4761 87.934L58.5521 87.603L58.6281 87.272L58.7041 86.941L58.7801 86.61L58.8561 86.279L58.9321 85.948L59.0081 85.617L59.0841 85.286L59.1601 84.955L59.2361 84.624L59.3121 84.293L59.3881 83.962L59.4641 83.631L59.5401 83.3L59.6161 82.969L59.6921 82.638L59.7681 82.307L59.8441 81.976L59.9201 81.645L59.9961 81.314L60.0721 80.983L60.1481 80.652L60.2241 80.321L60.3001 79.99L60.3761 79.659L60.4521 79.328L60.5281 78.997L60.6041 78.666L60.6801 78.335L60.7561 78.004L60.8321 77.673L60.9081 77.342L60.9841 77.011L61.0601 76.68L61.1361 76.349L61.2121 76.018L61.2881 75.687L61.3641 75.356L61.4401 75.025L61.5161 74.694L61.5921 74.363L61.6681 74.032L61.7441 73.701L61.8201 73.37L61.8961 73.039L61.9721 72.708L62.0481 72.377L62.1241 72.046L62.2001 71.715L62.2761 71.384L62.3521 71.053L62.4281 70.722L62.5041 70.391L62.5801 70.06L62.6561 69.729L62.7321 69.398L62.8081 69.067L62.8841 68.736L62.9601 68.405L63.0361 68.074L63.1121 67.743L63.1881 67.412L63.2641 67.081L63.3401 66.75L63.4161 66.419L63.4921 66.088L63.5681 65.757L63.6441 65.426L63.7201 65.095L63.7961 64.764L63.8721 64.433L63.9481 64.102L63.9751 63.784Z" fill="black"/>
<path opacity="0.6" d="M63.9751 63.784L64.4031 64.118L64.8311 64.452L65.2591 64.786L65.6871 65.12L66.1151 65.454L66.5431 65.788L66.9711 66.122L67.3991 66.456L67.8271 66.79L68.2551 67.124L68.6831 67.458L69.1111 67.792L69.5391 68.126L69.9671 68.46L70.4001 68.79L70.8281 69.124L71.2561 69.458L71.6841 69.792L72.1121 70.126L72.5401 70.46L72.9681 70.794L73.3961 71.128L73.8241 71.462L74.2521 71.796L74.6801 72.13L75.1081 72.464L75.5361 72.798L75.9641 73.132L76.3921 73.466L76.8201 73.8L77.2481 74.134L77.6761 74.468L78.1041 74.802L78.5321 75.136L78.9601 75.47L79.3881 75.804L79.8161 76.138L80.2441 76.472L80.6721 76.806L81.1001 77.14L81.5281 77.474L81.9561 77.808L82.3841 78.142L82.8121 78.476L83.2401 78.81L83.6681 79.144L84.0961 79.478L84.5241 79.812L84.9521 80.146L85.3801 80.48L85.8081 80.814L86.2361 81.148L86.6641 81.482L87.0921 81.816L87.5201 82.15L87.9481 82.484L88.3761 82.818L88.8041 83.152L89.2321 83.486L89.6601 83.82L90.0881 84.154L90.5161 84.488L90.9441 84.822L91.3721 85.156L91.8001 85.49L92.2281 85.824L92.6561 86.158L93.0841 86.492L93.5121 86.826L93.9401 87.16L94.3681 87.494L94.7961 87.828L95.2241 88.162L95.6521 88.496L96.0801 88.83L96.5081 89.164L96.9361 89.498L97.3641 89.832L97.7921 90.166L98.2201 90.5L98.6481 90.834L99.0761 91.168L99.5041 91.502L99.9321 91.836L100.36 92.17L100.788 92.504L101.216 92.838L101.644 93.172L102.072 93.506L102.5 93.84L102.928 94.174L103.356 94.508L103.784 94.842L104.212 95.176L104.64 95.51L105.068 95.844L105.496 96.178L105.924 96.512L106.352 96.846L106.78 97.18L106.701 97.281L106.622 97.382L106.543 97.482L106.464 97.582L106.384 97.682L106.304 97.782L106.224 97.882L106.144 97.982L106.063 98.081L105.982 98.18L105.901 98.279L105.82 98.378L105.738 98.477L105.656 98.575L105.574 98.673L105.492 98.771L105.409 98.869L105.326 98.967L105.243 99.064L105.16 99.161L105.077 99.258L104.993 99.355L104.909 99.452L104.825 99.548L104.741 99.644L104.656 99.74L104.571 99.836L104.486 99.932L104.401 100.027L104.316 100.122L104.23 100.217L104.144 100.312L104.058 100.407L103.972 100.501L103.885 100.595L103.798 100.689L103.711 100.783L103.624 100.877L103.537 100.97L103.449 101.063L103.361 101.156L103.273 101.249L103.185 101.342L103.096 101.434L103.007 101.526L102.918 101.618L102.829 101.71L102.74 101.802L102.65 101.893L102.56 101.984L102.47 102.075L102.38 102.166L102.29 102.256L102.199 102.346L102.108 102.436L102.017 102.526L101.926 102.616L101.834 102.705L101.742 102.794L101.65 102.883L101.558 102.972L101.466 103.061L101.373 103.149L101.28 103.237L101.187 103.325L101.094 103.413L101.001 103.5L100.907 103.587L100.813 103.674L100.719 103.761L100.625 103.848L100.531 103.934L100.463 104L100.368 104.086L100.273 104.172L100.178 104.257L100.083 104.342L99.9871 104.427L99.8911 104.512L99.7951 104.596L99.6991 104.68L99.6031 104.764L99.5061 104.848L99.4091 104.932L99.3121 105.015L99.2151 105.098L99.1181 105.181L99.0201 105.264L98.9221 105.346L98.8241 105.428L98.7261 105.51L98.6281 105.592L98.5291 105.674L98.4301 105.755L98.3311 105.836L98.2321 105.917L98.1331 105.998L98.0331 106.078L97.9331 106.158L97.8331 106.238L97.4941 105.813L97.1561 105.389L96.8171 104.964L96.4781 104.539L96.1391 104.114L95.8001 103.689L95.4611 103.264L95.1221 102.839L94.7831 102.414L94.4441 101.989L94.1051 101.564L93.7661 101.139L93.4271 100.714L93.0881 100.289L92.7491 99.864L92.4101 99.439L92.0711 99.014L91.7321 98.589L91.3931 98.164L91.0541 97.739L90.7151 97.314L90.3761 96.889L90.0371 96.464L89.6981 96.039L89.3591 95.614L89.0291 95.2L88.6901 94.775L88.3511 94.35L88.0121 93.925L87.6731 93.5L87.3341 93.075L86.9951 92.65L86.6561 92.225L86.3171 91.8L85.9781 91.375L85.6391 90.95L85.3001 90.525L84.9611 90.1L84.6221 89.675L84.2831 89.25L83.9441 88.825L83.6051 88.4L83.2661 87.975L82.9271 87.55L82.5881 87.125L82.2491 86.7L81.9101 86.275L81.5711 85.85L81.2321 85.425L80.8931 85L80.5541 84.575L80.2151 84.15L79.8761 83.725L79.5371 83.3L79.1981 82.875L78.8591 82.45L78.5201 82.025L78.1811 81.6L77.8421 81.175L77.5031 80.75L77.1641 80.325L76.8251 79.9L76.4861 79.475L76.1471 79.05L75.8081 78.625L75.4691 78.2L75.1301 77.775L74.7911 77.35L74.4521 76.925L74.1131 76.5L73.7741 76.075L73.4351 75.65L73.0961 75.225L72.7571 74.8L72.4181 74.375L72.0791 73.95L71.7401 73.525L71.4011 73.1L71.0621 72.675L70.7231 72.25L70.3841 71.825L70.0451 71.4L69.7061 70.975L69.3671 70.55L69.0281 70.125L68.6891 69.7L68.3501 69.275L68.0111 68.85L67.6721 68.425L67.3331 68L66.9941 67.575L66.6551 67.15L66.3161 66.725L65.9771 66.3L65.6381 65.875L65.2991 65.45L64.9601 65.025L64.6211 64.6L64.2821 64.175L63.9751 63.784Z" fill="black"/>
<path d="M77.5511 64.198L63.9751 64.197C63.8774 64.1958 63.7833 64.1601 63.7094 64.0962C63.6355 64.0324 63.5866 63.9444 63.5713 63.8479C63.556 63.7515 63.5752 63.6527 63.6257 63.5691C63.6762 63.4855 63.7546 63.4224 63.8471 63.391L76.7591 59.197C76.8107 59.1801 76.8651 59.1736 76.9193 59.1778C76.9734 59.182 77.0261 59.1968 77.0745 59.2215C77.1229 59.2461 77.166 59.28 77.2013 59.3213C77.2365 59.3625 77.2633 59.4103 77.2801 59.462C77.7351 60.86 77.9651 62.315 77.9641 63.785C77.9641 63.8392 77.9534 63.8929 77.9327 63.943C77.9119 63.9931 77.8815 64.0387 77.8431 64.077C77.8048 64.1154 77.7592 64.1458 77.7091 64.1665C77.659 64.1873 77.6053 64.198 77.5511 64.198ZM66.5861 63.37H77.1311C77.0969 62.2666 76.9235 61.1719 76.6151 60.112L66.5861 63.37Z" fill="black"/>
<path d="M63.9751 64.197C63.9084 64.1968 63.8428 64.1805 63.7838 64.1495C63.7247 64.1185 63.6741 64.0737 63.6361 64.0189C63.5981 63.9641 63.5739 63.901 63.5655 63.8348C63.5572 63.7687 63.5649 63.7015 63.5881 63.639L77.8991 25.51C77.918 25.459 77.9468 25.4124 77.9838 25.3726C78.0208 25.3328 78.0653 25.3008 78.1148 25.2783C78.1642 25.2558 78.2176 25.2433 78.2719 25.2416C78.3262 25.2398 78.3803 25.2488 78.4311 25.268C82.4742 26.7823 86.2528 28.9257 89.6271 31.619C89.7128 31.6873 89.7678 31.7869 89.7802 31.8958C89.7926 32.0047 89.7613 32.1141 89.6931 32.2L64.2981 64.041C64.2594 64.0895 64.2102 64.1287 64.1543 64.1557C64.0984 64.1827 64.0372 64.1968 63.9751 64.197ZM78.5271 26.189L65.2801 61.484L88.7871 32.009C85.6722 29.5746 82.2149 27.6134 78.5271 26.189Z" fill="black"/>
<path d="M63.9749 64.197C63.9145 64.1969 63.8548 64.1836 63.8001 64.158C63.7453 64.1325 63.6968 64.0953 63.6579 64.049L28.8569 22.364C28.822 22.3224 28.7956 22.2744 28.7793 22.2226C28.763 22.1708 28.7571 22.1163 28.7619 22.0622C28.7667 22.0081 28.7822 21.9555 28.8074 21.9074C28.8327 21.8593 28.8672 21.8167 28.9089 21.782C35.5391 16.2501 43.383 12.3638 51.8009 10.44C51.9079 10.4158 52.0202 10.4351 52.113 10.4936C52.2058 10.5521 52.2716 10.645 52.2959 10.752L64.3789 63.693C64.3994 63.7837 64.3888 63.8786 64.3489 63.9625C64.3091 64.0465 64.2421 64.1146 64.1589 64.156C64.1012 64.1827 64.0385 64.1967 63.9749 64.197ZM29.7569 22.152L63.1879 62.196L51.5809 11.339C43.5773 13.2332 36.1126 16.9318 29.7569 22.152Z" fill="black"/>
<path d="M17.2241 72.681C17.1275 72.6809 17.0339 72.647 16.9597 72.585C16.8855 72.5231 16.8354 72.4371 16.8181 72.342C15.0051 62.458 16.4171 52.033 20.7951 42.987C20.8428 42.8883 20.9277 42.8126 21.0312 42.7764C21.1347 42.7402 21.2483 42.7465 21.3471 42.794L64.1551 63.409C64.2343 63.4466 64.2995 63.5084 64.3413 63.5854C64.383 63.6625 64.3992 63.7509 64.3874 63.8378C64.3755 63.9246 64.3364 64.0055 64.2756 64.0686C64.2148 64.1318 64.1355 64.1739 64.0491 64.189L17.2991 72.674C17.2745 72.6793 17.2493 72.6816 17.2241 72.681ZM21.3601 43.721C17.2571 52.399 15.9121 62.331 17.5591 71.788L62.6491 63.605L21.3601 43.721Z" fill="black"/>
<path d="M41.6571 79.659C41.5902 79.6586 41.5243 79.6423 41.465 79.6113C41.4057 79.5804 41.3546 79.5357 41.3161 79.481C40.494 78.2937 39.7661 77.0439 39.1391 75.743C39.1154 75.6941 39.1017 75.641 39.0986 75.5868C39.0955 75.5325 39.1031 75.4782 39.121 75.427C39.139 75.3757 39.1668 75.3284 39.203 75.288C39.2393 75.2475 39.2831 75.2145 39.3321 75.191L63.7941 63.411C63.8882 63.3623 63.9974 63.3516 64.0992 63.3812C64.201 63.4109 64.2875 63.4785 64.3408 63.5701C64.3941 63.6617 64.4102 63.7702 64.3856 63.8733C64.3611 63.9765 64.2979 64.0662 64.2091 64.124L41.8931 79.586C41.8237 79.6338 41.7413 79.6592 41.6571 79.659ZM40.0671 75.755C40.5716 76.7603 41.1384 77.7332 41.7641 78.668L59.4201 66.436L40.0671 75.755Z" fill="black"/>
<path d="M63.9901 98.132C61.4101 98.132 58.8251 97.845 56.3301 97.275C56.2232 97.2502 56.1305 97.1842 56.0722 97.0912C56.0139 96.9983 55.9948 96.886 56.0191 96.779L63.5711 63.691C63.6151 63.499 63.7941 63.337 63.9861 63.37C64.0817 63.3724 64.1736 63.4081 64.2459 63.4709C64.3181 63.5336 64.3663 63.6196 64.3821 63.714L70.0671 97.174C70.0853 97.2822 70.0598 97.3932 69.9963 97.4827C69.9327 97.5721 69.8362 97.6327 69.7281 97.651C67.8323 97.9724 65.9128 98.1333 63.9901 98.132ZM56.9181 96.558C60.9181 97.418 65.1381 97.538 69.1821 96.902L63.9151 65.903L56.9181 96.558Z" fill="black"/>
<path d="M97.832 106.652C97.7697 106.652 97.7082 106.638 97.6521 106.611C97.596 106.584 97.5467 106.545 97.508 106.496L63.651 64.041C63.587 63.962 63.5543 63.8622 63.5593 63.7607C63.5643 63.6591 63.6066 63.563 63.678 63.4907C63.7495 63.4184 63.8451 63.375 63.9466 63.3688C64.048 63.3625 64.1482 63.3939 64.2279 63.457L107.061 96.836C107.148 96.9035 107.204 97.0026 107.217 97.1116C107.231 97.2205 107.2 97.3304 107.133 97.417C104.488 100.811 101.452 103.881 98.0879 106.563C98.0152 106.621 97.9249 106.652 97.832 106.652ZM66.4769 66.258L97.897 105.657C100.974 103.163 103.767 100.339 106.226 97.234L66.4769 66.258Z" fill="black"/>
</svg>
