<?xml version="1.0" standalone="no"?>
<!DOCTYPE svg PUBLIC "-//W3C//DTD SVG 20010904//EN"
 "http://www.w3.org/TR/2001/REC-SVG-20010904/DTD/svg10.dtd">
<svg version="1.0" xmlns="http://www.w3.org/2000/svg"
 width="288.000000pt" height="288.000000pt" viewBox="0 0 288.000000 288.000000"
 preserveAspectRatio="xMidYMid meet">

<g transform="translate(0.000000,288.000000) scale(0.100000,-0.100000)"
fill="#000000" stroke="none">
<path d="M1570 1853 c-97 -7 -99 -11 -24 -49 71 -35 68 -36 -24 -3 -79 27
-211 50 -249 43 -53 -10 -69 -43 -55 -113 29 -139 128 -265 269 -340 87 -47
63 -46 -35 1 -132 63 -236 193 -263 329 l-12 59 -87 0 c-175 0 -384 -59 -590
-167 -131 -68 -300 -181 -385 -257 l-50 -44 40 9 c330 80 566 40 720 -122 31
-32 58 -59 61 -59 2 0 4 43 4 95 l0 95 114 0 115 0 52 -92 c28 -51 53 -94 54
-96 2 -2 27 40 57 92 l53 96 123 0 122 0 0 -192 0 -193 48 52 c27 29 69 62 95
73 55 24 160 39 279 40 l88 0 -17 36 c-13 26 -14 40 -7 52 13 20 109 46 407
106 120 25 235 53 255 63 60 29 122 162 92 198 -23 28 -56 18 -73 -22 -16 -36
-16 -31 -2 28 6 25 2 27 -97 67 -176 69 -470 148 -678 181 -111 18 -162 23
-315 35 -22 1 -60 1 -85 -1z m-149 -144 c37 -17 82 -47 101 -66 l33 -35 -33
16 -33 17 16 -30 c17 -34 14 -37 -17 -20 -30 16 -32 5 -3 -30 21 -24 23 -31
11 -31 -18 0 -21 -15 -6 -25 14 -9 32 -45 22 -45 -4 0 -38 24 -74 54 -76 63
-148 164 -148 208 0 29 2 30 32 24 18 -3 62 -20 99 -37z m655 -48 c97 -19 171
-36 204 -47 35 -12 -23 -24 -118 -25 -107 0 -152 13 -172 51 -6 11 -18 20 -28
20 -9 0 -24 5 -32 10 -25 16 33 12 146 -9z m74 -334 c-129 -44 -158 -65 -162
-120 l-4 -42 -12 30 c-7 16 -11 39 -8 50 7 26 70 62 161 91 110 35 131 27 25
-9z"/>
<path d="M1120 926 l0 -146 110 0 110 0 0 145 c0 80 -2 145 -4 145 -2 0 -25
-34 -52 -75 -27 -41 -51 -75 -54 -75 -3 0 -25 31 -49 70 -23 38 -47 72 -52 76
-5 3 -9 -55 -9 -140z"/>
</g>
</svg>
