<svg width="24" height="22" viewBox="0 0 24 22" fill="none" xmlns="http://www.w3.org/2000/svg">
<path d="M1.20739 19.0909V4.09091H4.19034V5.9233H4.32528C4.45786 5.62973 4.64962 5.33144 4.90057 5.02841C5.15625 4.72064 5.48769 4.46496 5.89489 4.26136C6.30682 4.05303 6.81818 3.94886 7.42898 3.94886C8.22443 3.94886 8.95833 4.1572 9.63068 4.57386C10.303 4.9858 10.8404 5.60843 11.2429 6.44176C11.6454 7.27036 11.8466 8.30966 11.8466 9.55966C11.8466 10.7765 11.6501 11.804 11.2571 12.642C10.8688 13.4754 10.3385 14.1075 9.66619 14.5384C8.99858 14.9645 8.25047 15.1776 7.42188 15.1776C6.83475 15.1776 6.33523 15.0805 5.9233 14.8864C5.5161 14.6922 5.18229 14.4484 4.92188 14.1548C4.66146 13.8565 4.46259 13.5559 4.32528 13.2528H4.23295V19.0909H1.20739ZM4.16903 9.54545C4.16903 10.1941 4.259 10.7599 4.43892 11.2429C4.61884 11.7259 4.87926 12.1023 5.22017 12.3722C5.56108 12.6373 5.97538 12.7699 6.46307 12.7699C6.95549 12.7699 7.37216 12.6349 7.71307 12.3651C8.05398 12.0904 8.31203 11.7116 8.48722 11.2287C8.66714 10.741 8.7571 10.1799 8.7571 9.54545C8.7571 8.91572 8.66951 8.36174 8.49432 7.88352C8.31913 7.4053 8.06108 7.03125 7.72017 6.76136C7.37926 6.49148 6.96023 6.35653 6.46307 6.35653C5.97064 6.35653 5.55398 6.48674 5.21307 6.74716C4.87689 7.00758 4.61884 7.37689 4.43892 7.85511C4.259 8.33333 4.16903 8.89678 4.16903 9.54545ZM17.5926 15.2131C16.4894 15.2131 15.5353 14.9787 14.7304 14.5099C13.9302 14.0365 13.3123 13.3783 12.8767 12.5355C12.4411 11.688 12.2233 10.7055 12.2233 9.58807C12.2233 8.46117 12.4411 7.47633 12.8767 6.63352C13.3123 5.78598 13.9302 5.12784 14.7304 4.65909C15.5353 4.18561 16.4894 3.94886 17.5926 3.94886C18.6958 3.94886 19.6475 4.18561 20.4477 4.65909C21.2527 5.12784 21.8729 5.78598 22.3085 6.63352C22.7441 7.47633 22.9619 8.46117 22.9619 9.58807C22.9619 10.7055 22.7441 11.688 22.3085 12.5355C21.8729 13.3783 21.2527 14.0365 20.4477 14.5099C19.6475 14.9787 18.6958 15.2131 17.5926 15.2131ZM17.6068 12.8693C18.1087 12.8693 18.5277 12.7273 18.8639 12.4432C19.2001 12.1544 19.4534 11.7614 19.6239 11.2642C19.7991 10.767 19.8866 10.2012 19.8866 9.56676C19.8866 8.93229 19.7991 8.36648 19.6239 7.86932C19.4534 7.37216 19.2001 6.97917 18.8639 6.69034C18.5277 6.40151 18.1087 6.2571 17.6068 6.2571C17.1002 6.2571 16.6741 6.40151 16.3284 6.69034C15.9875 6.97917 15.7295 7.37216 15.5543 7.86932C15.3838 8.36648 15.2986 8.93229 15.2986 9.56676C15.2986 10.2012 15.3838 10.767 15.5543 11.2642C15.7295 11.7614 15.9875 12.1544 16.3284 12.4432C16.6741 12.7273 17.1002 12.8693 17.6068 12.8693Z" fill="black"/>
</svg>
