<svg width="24" height="22" viewBox="0 0 24 22" fill="none" xmlns="http://www.w3.org/2000/svg">
<path d="M8.41619 19.0909V13.2528H8.32386C8.18182 13.5559 7.98059 13.8565 7.72017 14.1548C7.46449 14.4484 7.13068 14.6922 6.71875 14.8864C6.31155 15.0805 5.81439 15.1776 5.22727 15.1776C4.39867 15.1776 3.6482 14.9645 2.97585 14.5384C2.30824 14.1075 1.77794 13.4754 1.38494 12.642C0.996686 11.804 0.802557 10.7765 0.802557 9.55966C0.802557 8.30966 1.00379 7.27036 1.40625 6.44176C1.80871 5.60843 2.34375 4.9858 3.01136 4.57386C3.68371 4.1572 4.41998 3.94886 5.22017 3.94886C5.83097 3.94886 6.33996 4.05303 6.74716 4.26136C7.15909 4.46496 7.49053 4.72064 7.74148 5.02841C7.99716 5.33144 8.19129 5.62973 8.32386 5.9233H8.4517V4.09091H11.4347V19.0909H8.41619ZM6.18608 12.7699C6.67377 12.7699 7.0857 12.6373 7.42188 12.3722C7.76278 12.1023 8.0232 11.7259 8.20312 11.2429C8.38778 10.7599 8.48011 10.1941 8.48011 9.54545C8.48011 8.89678 8.39015 8.33333 8.21023 7.85511C8.0303 7.37689 7.76989 7.00758 7.42898 6.74716C7.08807 6.48674 6.67377 6.35653 6.18608 6.35653C5.68892 6.35653 5.26989 6.49148 4.92898 6.76136C4.58807 7.03125 4.33002 7.4053 4.15483 7.88352C3.97964 8.36174 3.89205 8.91572 3.89205 9.54545C3.89205 10.1799 3.97964 10.741 4.15483 11.2287C4.33475 11.7116 4.5928 12.0904 4.92898 12.3651C5.26989 12.6349 5.68892 12.7699 6.18608 12.7699ZM22.9403 7.2017L20.1705 7.37216C20.1231 7.13542 20.0213 6.92235 19.8651 6.73295C19.7088 6.53883 19.5028 6.38494 19.2472 6.27131C18.9962 6.15294 18.6955 6.09375 18.3452 6.09375C17.8764 6.09375 17.4811 6.19318 17.1591 6.39205C16.8371 6.58617 16.6761 6.84659 16.6761 7.1733C16.6761 7.43371 16.7803 7.65388 16.9886 7.83381C17.197 8.01373 17.5545 8.15814 18.0611 8.26705L20.0355 8.66477C21.0961 8.88258 21.8868 9.23295 22.4077 9.71591C22.9285 10.1989 23.1889 10.8333 23.1889 11.6193C23.1889 12.3343 22.9782 12.9616 22.5568 13.5014C22.1402 14.0412 21.5672 14.4626 20.8381 14.7656C20.1136 15.0639 19.2779 15.2131 18.331 15.2131C16.8868 15.2131 15.7363 14.9124 14.8793 14.3111C14.027 13.705 13.5275 12.8812 13.3807 11.8395L16.3565 11.6832C16.4465 12.1236 16.6643 12.4598 17.0099 12.6918C17.3556 12.919 17.7983 13.0327 18.3381 13.0327C18.8684 13.0327 19.2945 12.9309 19.6165 12.7273C19.9432 12.5189 20.1089 12.2514 20.1136 11.9247C20.1089 11.6501 19.9929 11.4252 19.7656 11.25C19.5384 11.0701 19.188 10.9328 18.7145 10.8381L16.8253 10.4616C15.7599 10.2486 14.9669 9.87926 14.446 9.35369C13.9299 8.82812 13.6719 8.15814 13.6719 7.34375C13.6719 6.64299 13.8613 6.0393 14.2401 5.53267C14.6236 5.02604 15.161 4.63542 15.8523 4.3608C16.5483 4.08617 17.3627 3.94886 18.2955 3.94886C19.6733 3.94886 20.7576 4.24006 21.5483 4.82244C22.3438 5.40483 22.8078 6.19792 22.9403 7.2017Z" fill="black"/>
</svg>
