<svg viewBox="0 0 1024 1024" xmlns="http://www.w3.org/2000/svg"><path d="M992.273 28.094c-189.98 6.983-344.077 48.068-461.856 111.437l-58.82 98.352-9.924-56.058c-21.025 14.772-40.51 30.38-58.473 46.713l-29.36 90.007-10.07-50.3C276.61 365.8 237.62 483.785 247.465 604.378H100.2v98.03h80.607l-86.492 75.937L49.857 948.03l29.036 31.686h353.85l29.037-31.686-44.46-169.685-81.857-75.936h70.58v-98.03H276.29c51.076-26.463 100.668-63.075 149.773-105.39l-59.59 3.106.55-.61 106.984-45.546c93.52-87.102 186.487-189.584 285.942-275.994l-48.92-10.357 113.12-42.132c53.53-40.816 109.23-75.445 168.12-99.363z"/></svg>