<svg xmlns="http://www.w3.org/2000/svg" data-name="Layer 1" viewBox="0 0 100 100" x="0px" y="0px"><title>76 all</title><path d="M15.16,80.68h30.7v-4H17.16v-46H35.44a2,2,0,0,0,2-2V10.38h30.4V52.29h4V8.38a2,2,0,0,0-2-2H35.44A2,2,0,0,0,34,7L13.75,27.25a2,2,0,0,0-.59,1.41v50A2,2,0,0,0,15.16,80.68Zm4.83-54L33.44,13.21V26.66Z"/><rect x="25.95" y="39.53" width="33.1" height="4"/><rect x="25.95" y="51.53" width="33.1" height="4"/><path d="M78.12,82.08a16.06,16.06,0,1,0-2.83,2.83L84,93.62l2.83-2.83ZM65.49,84.28a12,12,0,1,1,12-12A12,12,0,0,1,65.49,84.28Z"/></svg>