<svg xmlns="http://www.w3.org/2000/svg" xmlns:xlink="http://www.w3.org/1999/xlink" version="1.1" x="0px" y="0px" viewBox="0 0 48 48" enable-background="new 0 0 48 48" xml:space="preserve"><path d="M24,47.424c0.008,0,0.015,0,0.022,0c0.01,0,0.02,0.004,0.029,0.004c0.001,0,0.001,0,0.002,0s0.001,0,0.001,0  c0.015,0,0.03-0.006,0.045-0.006c12.933-0.055,23.438-10.59,23.438-23.537c0-12.915-10.456-23.43-23.347-23.533  c-0.005,0-0.011,0-0.015,0C24.117,0.351,24.06,0.347,24,0.347c-12.979,0-23.538,10.56-23.538,23.538  C0.462,36.865,11.021,47.424,24,47.424z M44.374,23.885c0,2.675-0.523,5.228-1.466,7.57c-1.109-0.391-2.838-0.938-5.087-1.461  c0.467-1.98,0.725-4.025,0.725-6.109c0-2.11-0.265-4.183-0.744-6.188c1.665-0.393,3.36-0.871,5.085-1.439  C43.842,18.615,44.374,21.189,44.374,23.885z M35.381,23.885c0,1.869-0.235,3.703-0.66,5.476c-2.625-0.463-5.707-0.818-9.138-0.896  v-9.169c2.859-0.078,5.917-0.371,9.122-0.951C35.141,20.138,35.381,21.994,35.381,23.885z M22.418,42.912  c-3.653-2.662-6.427-6.299-8.052-10.436c2.816-0.48,5.512-0.721,8.052-0.793V42.912z M25.583,42.986V31.68  c3.041,0.076,5.792,0.381,8.166,0.775C32.11,36.641,29.295,40.313,25.583,42.986z M25.583,16.092V4.785  c3.705,2.67,6.518,6.335,8.159,10.511C30.886,15.784,28.153,16.024,25.583,16.092z M22.418,4.859v11.232  c-3-0.082-5.714-0.385-8.061-0.774C15.98,11.171,18.758,7.527,22.418,4.859z M22.418,19.3v9.176  c-2.83,0.082-5.852,0.369-9.018,0.943c-0.435-1.791-0.674-3.645-0.674-5.535c0-1.869,0.234-3.703,0.66-5.478  C15.986,18.865,19.027,19.217,22.418,19.3z M10.304,30.066c-1.695,0.4-3.424,0.889-5.18,1.473c-0.963-2.365-1.497-4.947-1.497-7.654  c0-2.688,0.527-5.252,1.478-7.604c1.102,0.393,2.868,0.955,5.181,1.494c-0.467,1.98-0.724,4.025-0.724,6.109  C9.562,25.994,9.825,28.063,10.304,30.066z M6.555,34.396c1.58-0.51,3.137-0.932,4.667-1.283c1.434,3.883,3.756,7.396,6.792,10.246  C13.187,41.873,9.12,38.639,6.555,34.396z M30.149,43.309c3.021-2.852,5.329-6.361,6.752-10.238c1.974,0.445,3.53,0.906,4.584,1.258  C38.952,38.555,34.931,41.791,30.149,43.309z M41.464,13.405c-1.549,0.497-3.076,0.91-4.578,1.255  c-1.425-3.86-3.727-7.355-6.736-10.197C34.916,5.975,38.929,9.197,41.464,13.405z M18.015,4.411  c-3.049,2.861-5.378,6.39-6.81,10.291c-2.03-0.457-3.62-0.935-4.674-1.287C9.095,9.153,13.172,5.903,18.015,4.411z"/></svg>