<svg width="695" height="544" viewBox="0 0 695 544" fill="none" xmlns="http://www.w3.org/2000/svg">
<path d="M274.667 1.26662C265.2 4.59996 249.333 17.1333 249.333 21.2666C249.333 22.2 248.8 23 248.133 23C247.6 23 246.533 25 245.733 27.2666C244.4 32.2 244.8 32.2 227.733 29.5333C212.267 27.2666 188 29.2666 172.267 34.3333L161.2 37.8L155.067 31C147.733 22.8666 141.2 19.2666 132.933 18.8666C114.667 17.9333 102.667 43 108.4 70.3333C110.267 79.4 110.267 79.6666 107.333 83.6666C103.867 88.3333 96.5333 102.733 94 109.667C93.0667 112.467 88.4 119.933 83.6 126.467C68.5333 147.133 57.4667 172.6 52.1334 199.133C48.2667 217.667 48 222.867 47.8667 258.067C47.8667 290.733 50 313.667 55.2 335.667C56.2667 340.067 56.8 344.067 56.2667 344.467C55.7334 345 52 346.467 48 347.667C40.5334 350.067 31.3333 355.533 28 359.667C26.9334 360.867 25.0667 364.867 23.8667 368.6C22 373.8 21.7334 376.6 22.6667 382.067C24.1334 390.067 25.0667 424.333 23.8667 424.333C23.4667 424.333 22 423.133 20.6667 421.667C15.4667 415.933 5.06668 417.267 1.46669 424.2C-1.19998 429.133 7.46668 443.933 21.4667 458.333L29.3333 466.333L29.6 493.667L30 521L36.6667 524.6C52.5334 533.133 76.8 539.533 100 541C107.733 541.533 115.467 542.2 117.333 542.467C122.667 543.267 161.333 543.267 168 542.467C182.267 540.6 185.333 539.933 196.667 536.067C203.333 533.933 211.867 530.6 215.733 528.867C222.8 525.667 222.8 525.667 226.133 528.2C233.067 533.667 240 532.867 258 524.2C268.533 519.267 269.333 518.6 276.267 507.667C284.933 493.933 289.6 483.133 290 476.467C290 475.4 290.667 474.333 291.333 474.067C292.133 473.8 292.667 478.867 292.667 487.4C292.667 500.867 292.667 501.133 297.333 507.533C306.533 520.467 322.4 522.6 335.6 512.867C341.467 508.467 350.8 490.6 356.667 472.333C362.667 453.667 362.933 453.133 366.133 452.6C370.4 451.933 373.6 435.533 374.4 410.867C375.067 387.133 373.467 371.533 368.533 355C365.467 345 363.333 340.333 356.4 329C355.467 327.533 354.4 325.4 353.867 324.333C353.333 323.267 350.533 319.8 347.733 316.867L342.4 311.4L347.467 300.2C353.2 287.267 357.867 281.8 367.733 276.067C374.267 272.333 376.133 271.933 387.733 271.667C397.067 271.533 403.067 270.6 409.333 268.333C422.8 263.667 434.8 257.667 438.8 253.533C446.933 245.133 454.4 232.867 457.6 222.733C460 214.6 461.067 212.467 462.667 213.133C466.667 214.867 472 215.267 472 213.8C472 213 470.4 212.067 468.4 211.533C466.267 211.133 461.333 209.533 457.333 208.067C453.333 206.6 448.267 204.867 446 204.2C439.867 202.333 430 194.467 425.6 188.067C423.467 184.867 418.8 176.867 415.2 170.333C406.267 153.4 397.467 140.467 392 136.067C384.533 130.2 370.533 128.6 352 131.667C350 132.067 351.467 130.867 355.333 129C359.067 127.133 364.8 125.267 368.4 124.867C371.867 124.333 375.067 123.533 375.467 122.867C375.733 122.2 378 122.067 380.4 122.6C397.333 125.667 416.933 136.067 422.933 145.4C434 162.333 436.933 166.2 441.333 169.667C447.2 174.333 455.333 177.933 465.067 180.2C468.8 181.133 472.533 182.867 473.2 184.067C474.133 185.8 474.933 185.4 477.2 181.533C478.667 179 480 176.067 480 175C480 172.333 486.933 158.867 492.8 149.933C500.4 138.733 521.067 118.867 526.133 118.2C527.333 118.067 529.333 116.867 530.8 115.533C532.133 114.333 533.333 113.667 533.333 114.2C533.333 114.733 535.333 114.067 537.733 112.6C542.533 109.667 549.867 107.4 558.533 106.333C561.733 105.933 565.067 105.133 565.867 104.733C567.467 103.667 589.6 103.933 598 105.133C600.933 105.4 608.933 107.667 615.733 109.8C645.067 119.533 670.933 144.2 683.067 174.333C688 186.6 689.6 194.467 690 208.333C691.733 263 655.333 307.8 601.333 317.667C593.467 319.133 576.267 319.533 568 318.467C560.8 317.533 544.133 312.2 535.867 308.2C516.933 299 498.933 282.467 488 264.333C484.8 258.867 482 254.067 482 253.667C481.867 253.267 480.267 247.933 478.267 241.667C476.4 235.4 474.533 227.933 474.4 225.133C474.133 222.2 473.067 219.533 472.133 219.267C468.4 218.067 473.867 242.067 480.8 257.267C486.667 270.2 492.933 279.533 503.067 289.8C524.4 311.933 548.267 321.933 583.6 323.533C598.8 324.333 621.733 318.2 637.733 309.133C667.333 292.467 688.8 261.8 694 229C696 216.333 693.867 184.067 690.8 179.667C690.267 178.867 689.067 175.667 688.133 172.333C682.933 154.067 668.4 134.467 649.333 119.667C621.2 98.0666 576.667 91.5333 544 104.2C510.667 117.267 488.4 139.533 476 172.333C475.067 174.867 473.867 177.4 473.467 177.933C472.8 178.733 461.6 175.667 460.267 174.467C460.133 174.2 458.667 169.667 457.2 164.333L454.533 154.6L457.467 152.6C459.467 151.267 460 149.667 459.6 147.267C459.067 144.6 460 142.733 463.333 139.4C467.467 135.267 468.133 135.133 471.333 136.6C474.533 138.067 475.2 137.933 477.467 135.133C479.333 133 479.6 131.4 478.667 129.8C477.733 127.933 478.4 126.467 481.467 123.533L485.333 119.8L469.733 104.067C461.067 95.4 453.467 88.3333 452.8 88.3333C452.133 88.3333 450.533 89.2666 449.333 90.3333C447.6 91.8 446.133 92.0666 443.867 91.2666C437.467 88.8666 430.8 95.2666 435.467 99.1333C437.2 100.467 436.8 101.4 433.067 105.267C429.6 108.867 427.867 109.667 425.2 109.133C423.2 108.733 420.533 109.4 418.667 110.6C416.4 112.2 415.867 113.533 416.533 116.733C417.2 119.8 416.667 121.533 414.4 124.067C411.333 127.133 411.333 127.267 413.867 129.133C418.933 132.867 413.067 131 407.467 127C404.267 124.867 397.333 121.933 392 120.467C383.2 117.933 381.6 117.933 372.267 119.533C361.333 121.533 348.4 126.867 344.533 131.133C340.933 135.133 343.6 136.467 352 135.133C370.933 131.933 385.2 135 393.6 143.933L397.333 147.8L387.6 157.133C372.267 171.933 372.933 171.533 368.133 169C365.733 167.8 363.333 167.267 362.667 167.667C362 168.067 361.2 167.8 360.667 167C358.533 163.533 334.533 166.333 325.067 171.133C322.267 172.6 319.867 173.667 319.467 173.667C319.2 173.667 320.133 169.933 321.6 165.267C323.467 159.533 324.4 152.2 324.8 141.133C325.333 125.4 325.333 125.267 328.933 123.4C337.333 119 342.667 110.6 342.667 101.533C342.667 90.8666 329.733 83.4 319.067 87.9333C316.667 88.8666 314.533 89.6666 314.133 89.6666C313.867 89.6666 312 87 310.133 83.6666C308.133 80.3333 303.467 74.0666 299.733 69.5333L292.933 61.2666L295.733 53.1333C299.6 41.8 301.6 29.6666 300.533 22.7333C298.133 6.86662 286.4 -2.86671 274.667 1.26662ZM287.467 7.13329C290 8.59996 292 10.4666 292 11.1333C292 11.9333 290.267 11.2666 288.133 9.79996C282.133 5.53329 275.867 5.39996 268 9.26662C264.4 11 261.333 13.1333 261.333 13.8C261.333 14.4666 260.667 15 259.733 15C257.2 15 262.533 10.3333 268.667 7.13329C275.333 3.53329 281.733 3.53329 287.467 7.13329ZM279.733 17.8C284.133 19.2666 286.4 23.8 287.2 33C287.733 38.3333 285.333 47.8 284.133 45.9333C282.8 43.8 268.933 35.5333 264.133 33.9333C258.267 31.9333 257.333 31.9333 257.333 34.3333C257.333 35.4 256.667 36.3333 256 36.3333C252.133 36.3333 262.267 24.0666 270.667 18.6C274.8 15.9333 274.667 15.9333 279.733 17.8ZM141.067 24.2C142.667 25.1333 141.333 25.4 136.533 24.7333C125.467 23.5333 118 29.5333 112.667 44.2C111.2 48.0666 110.8 48.4666 110.8 45.8C110.533 40.3333 118.267 27.6666 123.6 24.7333C128.667 21.8 136.4 21.5333 141.067 24.2ZM206 35.2666C200.133 35.9333 188.8 37.9333 180.8 39.6666C164.267 43.5333 164.933 43.4 165.867 41.8C167.333 39.5333 198 33.9333 208.667 33.9333C216.667 34.0666 216.667 34.0666 206 35.2666ZM142.667 43.6666C143.733 44.2 146.667 46.8666 149.067 49.8L153.6 54.8666L148.533 59.2666C135.333 70.7333 128 78.2 127.867 80.2C127.733 85.5333 125.333 75.4 124.533 65.8C123.467 52.8666 124.4 49 129.467 44.2C133.467 40.4666 135.733 40.4666 142.667 43.6666ZM153.733 60.8666C152.4 62.6 151.067 63.8 150.8 63.5333C150.267 63 154.667 57.6666 155.6 57.6666C155.867 57.6666 155.067 59.1333 153.733 60.8666ZM146.8 72.7333C145.467 73.9333 145.333 73.8 146.133 71.9333C146.533 70.6 147.333 69.9333 147.733 70.3333C148.133 70.7333 147.733 71.8 146.8 72.7333ZM263.867 75C265.333 75.9333 263.067 76.0666 256.4 75.5333C231.6 73.2666 207.333 88.2 200.133 110.067C199.2 112.867 198.133 114.867 197.733 114.467C196.667 113.4 201.067 102.067 204.933 96.0666C210.533 86.8666 223.067 78.4666 237.333 74.2C243.867 72.2 260.133 72.7333 263.867 75ZM132 86.6C132 89.1333 130.267 87.8 129.867 85C129.733 83.9333 130.133 83.2666 130.8 83.8C131.467 84.2 132 85.4 132 86.6ZM330.4 89.8C334.8 91.2666 338.667 97.6666 338.667 103.667C338.667 108.6 335.067 115.8 330.933 119C326.533 122.6 324.8 122.333 323.067 117.933C321.733 114.467 321.6 114.467 321.467 117.533C321.333 119.8 320.8 120.333 319.2 119.8C318 119.4 316.933 119 316.667 119C315.467 119 317.733 111.4 319.467 109.533C320.667 108.2 320.933 107 320.4 106.6C318.267 105.267 315.733 107.933 315.733 111.533C315.733 114.067 315.067 114.867 313.2 114.6C309.2 113.933 308.667 112.467 311.6 110.067C313.467 108.333 314 106.733 313.333 104.333C312.4 101.133 312.4 101.133 311.067 105.667C310 109.4 309.467 109.8 308.667 108.067C307.067 104.2 313.333 93.4 318.667 90.7333C324.133 87.9333 324.933 87.9333 330.4 89.8ZM108.267 93.9333C107.333 94.8666 106.667 95 106.667 94.2C106.667 92.3333 108.267 90.7333 109.2 91.6666C109.467 92.0666 109.067 93.1333 108.267 93.9333ZM441.867 96.4666C438.933 99.6666 437.333 99.6666 437.333 96.4666C437.333 93.6666 439.6 92.3333 442.4 93.4C443.733 93.8 443.6 94.6 441.867 96.4666ZM461.067 99.4C464.933 103.133 470.933 109.133 474.4 112.733L480.667 119L475.333 123.933C472.4 126.6 467.333 131.267 464 134.333C460.667 137.267 457.333 140.2 456.533 140.733C454.4 141.933 446.933 136.067 447.733 133.667C448.133 132.467 446.533 133.133 443.6 135.4C437.733 139.8 434.4 140.2 439.6 135.8C442.267 133.533 442.933 132.067 441.867 131.133C440.933 130.067 439.2 130.6 436.133 132.867L431.6 136.2L427.333 133C425.067 131.133 422.533 129.667 421.867 129.667C421.067 129.667 419.867 129 418.933 128.067C417.733 126.867 421.467 122.6 435.067 109.533C444.667 100.067 452.933 92.4666 453.333 92.4666C453.733 92.3333 457.2 95.5333 461.067 99.4ZM251.2 95.4C254.8 97.9333 252.8 102.867 247.2 105.133C244.8 106.2 242.267 107 241.733 107C240.4 107 243.867 103.667 245.467 103.533C246.133 103.4 247.067 103.267 247.6 103.133C248.133 103.133 247.333 102.067 245.867 100.867C244.533 99.8 244.133 99.2666 245.2 99.8C246.133 100.2 247.467 99.8 248.133 98.8666C248.933 97.5333 249.333 97.4 249.333 98.6C249.333 99.5333 250 100.333 250.667 100.333C251.467 100.333 252 99.4 252 98.3333C252 94.3333 238.133 97 233.867 101.933C231.333 104.733 231.333 104.733 234.267 103.133C236.8 101.8 237.2 101.933 236.4 103.8C235.733 105.667 236 105.667 238.4 104.2C239.867 103.267 240.8 101.933 240.4 101.133C240 100.467 240.267 100.333 241.067 100.867C243.467 102.333 239.867 107 236.533 107C234.933 107 232.933 106.067 232 104.867C230.533 103.133 230.667 102.467 232.933 100.2C235.333 97.6666 244 93.8 247.467 93.6666C248.133 93.6666 249.867 94.4666 251.2 95.4ZM104.4 103.667C104 104.867 103.333 105.533 103.067 105.133C102.667 104.733 102.8 103.933 103.333 103.133C104.533 101 105.333 101.4 104.4 103.667ZM424 114.333C420.4 118.2 418.267 118.6 418.933 115.4C419.333 113.533 421.333 112.333 426.533 111.133C426.933 111 425.733 112.467 424 114.333ZM314 116.333C314.4 117 314.133 117.667 313.467 117.667C312.667 117.667 312 117 312 116.333C312 115.533 312.267 115 312.533 115C312.933 115 313.6 115.533 314 116.333ZM89.3333 129.667C86.4 150.067 89.0667 169.267 97.6 188.2C99.7333 192.867 102.933 198.733 104.667 201.4C106.4 203.933 109.467 211.4 111.467 217.8C113.733 225 115.733 229.667 116.933 229.667C117.867 229.667 118.667 230.333 118.667 231.133C118.667 231.8 118.133 232.067 117.333 231.667C115.6 230.6 115.6 231.8 117.467 235.267C118.667 237.533 119.2 237.667 120.267 236.2C121.2 234.867 121.333 235.133 120.667 237.267C119.867 240.067 121.733 244.2 128.267 254.2C130.667 257.8 132 258.733 134 258.067C136.267 257.4 136.4 257.667 135.067 259.267C133.733 260.867 134.133 261.933 137.6 265.133C139.867 267.267 141.333 268.2 140.667 267.267C139.867 265.8 140.267 265.667 142.4 266.867C144 267.667 144.933 269.133 144.533 270.067C144.267 271 145.867 272.733 148.267 273.933C164.667 282.2 180.133 283.4 191.733 277.4L198.8 273.667L198.4 280.733L198 287.667L188.667 288.733C182.533 289.4 177.2 289.267 173.333 288.2C146.933 281.4 130.533 269 120.667 247.933C119.067 244.333 117.867 243.267 116.933 244.2C114.8 246.333 119.2 254.333 129.067 266.867C137.733 277.8 150.267 286.067 162 288.6C173.067 290.867 174 291.133 175.067 292.2C176 293.133 174.4 309.8 172.667 315.667C171.467 320.067 166.667 343 166.8 344.067C167.6 349.667 166.267 350.467 154.4 351.667C146.133 352.6 143.067 351.8 145.067 349.267C145.733 348.333 146.667 345.267 147.067 342.333C147.733 337.933 153.467 309.933 156.933 294.467C157.6 291.533 157.333 290.733 155.867 291.267C154.8 291.533 153.867 293.533 153.6 295.4C153.333 297.4 152.533 298.733 151.867 298.2C151.2 297.8 150.933 296.867 151.333 296.2C151.867 295.533 151.6 295 150.8 295C150 295 148.8 297.267 148.133 299.933C146.133 307.933 141.6 330.733 140 341.267C138.267 352.467 138.667 352.2 124.533 348.467C94.4 340.733 72.1333 318.2 59.3334 283C55.3334 271.667 54.9334 270.2 53.8667 261C53.4667 257.267 52.8 253.4 52.5334 252.333C51.2 248.6 52.2667 212.467 53.7334 208.333C54.1334 207.267 54.4 205.4 54.4 204.333C54.2667 201.533 58.1334 184.733 60.5334 177.8C61.7334 174.6 62.2667 171.533 61.8667 170.867C61.4667 170.2 61.7334 169.667 62.4 169.667C63.0667 169.667 64.4 167.667 65.3333 165.267C69.8667 153.4 88.9333 119.533 90.2667 120.867C90.4 121 90 125 89.3333 129.667ZM477.333 130.867C477.333 132.867 473.6 135.267 472 134.333C471.067 133.667 471.333 132.733 472.933 131.533C475.733 129.4 477.333 129.133 477.333 130.867ZM163.2 131.8C167.067 133.267 165.467 134.6 160.4 134.067C155.867 133.667 155.2 134.067 153.6 137.667C152.533 139.8 151.2 141.667 150.533 141.667C149.867 141.667 150.133 139.8 151.333 137.667C152.533 135.267 152.8 133.667 152 133.667C151.2 133.667 150.267 134.6 149.867 135.667C149.333 136.733 148.533 137.267 147.867 136.867C146.267 135.933 141.333 144.2 141.2 148.333C141.067 150.6 140.8 150.867 140.4 149.267C139.333 145.4 142.667 137.933 146.8 134.333C150.8 131 158.133 129.933 163.2 131.8ZM422.667 135C422.667 135.667 424.267 136.733 426.4 137.4L430 138.733L426.533 138.867C424.533 139 421.867 137.667 420.133 135.8C417.067 132.6 417.067 132.467 419.867 133.267C421.333 133.667 422.667 134.467 422.667 135ZM159.467 139.933C158.133 141.267 156.933 139.267 158.133 137.533C158.933 136.067 159.2 136.067 159.733 137.533C160 138.467 159.867 139.533 159.467 139.933ZM170 142.067C170 143.8 169.067 146.333 168 147.667C166.133 149.933 166.267 150.067 168.267 149.267C170 148.733 170.4 149.133 170 151.267C169.6 152.867 168.8 154.733 168 155.533C167.333 156.2 166.667 157.8 166.667 158.867C166.667 160.333 167.467 160.067 169.467 157.667C171.6 155.133 171.867 155 170.8 157.133C170.133 158.6 168.667 160.467 167.733 161.267C165.2 163.133 161.067 164.467 162 163.133C162.4 162.467 162 161.667 161.2 161.4C159.6 160.867 165.867 147.133 168.533 145.4C169.333 144.867 169.467 144.067 168.933 143.533C167.333 141.933 164.4 145.533 160.667 153.8C157.733 160.467 157.333 162.2 158.8 163.133C160.4 164.067 160.267 164.333 158.667 164.467C152.267 165 147.067 163.8 144.667 161.533C142.4 159.267 142.4 159 144.4 159.8C146.933 160.733 147.6 158.333 145.067 157.267C144 156.867 144.4 156.467 145.867 156.467C147.867 156.333 148.133 157 147.467 159.667C146.933 161.8 147.2 163 148.133 163C149.067 163 149.467 162.6 148.933 162.2C147.6 160.867 150.8 153.8 152.533 154.467C153.467 154.867 155.2 152.867 156.667 149.667C158 146.6 159.6 143.933 160.267 143.533C160.933 143.133 159.867 146.333 157.867 150.6C153.333 160.6 152.667 163 154.533 163C155.333 163 156 162.2 156 161.267C156 160.2 157.867 155.667 160.133 151.133C163.6 144.2 164 142.467 162.533 141.533C161.2 140.6 161.867 140.467 164.133 141.133C166.133 141.533 168.133 141.267 168.533 140.467C169.867 138.333 170.133 138.6 170 142.067ZM148.667 146.733C144.667 154.467 141.6 157.933 140.667 156.333C140.133 155.533 140.8 154.067 142.133 153C143.6 152.067 144.267 150.733 143.733 150.2C143.067 149.667 143.867 148.333 145.467 147.267C146.933 146.2 147.867 144.6 147.467 143.533C147.067 142.467 147.467 142.067 148.667 142.467C150.4 143.133 150.4 143.8 148.667 146.733ZM155.867 147C154.267 149.933 152.533 151.933 151.867 151.533C150.267 150.6 150.4 147 152 147C152.8 147 153.333 145.8 153.333 144.333C153.333 142.6 154.267 141.667 156 141.667C158.533 141.667 158.533 141.667 155.867 147ZM273.867 143.133C272.4 145.533 254.267 153.667 250.4 153.667C244.533 153.667 246 151.267 252.4 150.333C255.467 149.8 261.333 147.8 265.333 145.8C273.733 141.533 275.2 141.133 273.867 143.133ZM438.533 144.467C440.933 145.933 442.667 147.533 442.267 147.933C441.867 148.333 440.133 147.667 438.4 146.467C436.8 145.267 433.467 144.333 430.933 144.333C428.267 144.333 426.8 143.8 427.333 143C428.667 140.867 433.733 141.533 438.533 144.467ZM172.933 150.6C172.533 151.933 172.267 151.133 172.267 149C172.267 146.733 172.533 145.8 172.933 146.6C173.2 147.533 173.2 149.4 172.933 150.6ZM457.333 148.2C457.333 148.867 456.4 150.067 455.333 151C453.733 152.333 453.333 152.333 453.333 150.733C453.333 149.667 453.733 148.333 454.267 147.933C455.467 146.6 457.333 146.733 457.333 148.2ZM401.333 155.133C402.533 157.133 402.4 158.333 401.2 159.8C399.067 162.333 400.667 163.8 403.333 161.667C406.933 158.733 405.733 163.267 402 166.867C400 168.6 398.667 171.4 398.667 173.533C398.8 176.867 398.8 176.867 400.667 174.467C401.733 173 402.933 172.2 403.333 172.467C404.4 173.533 401.333 183.133 400.133 182.333C398.667 181.533 397.067 189.933 398 192.6C398.533 193.8 393.067 199.8 382.4 209.8C373.333 218.067 356.133 234.733 344 246.6L322 268.2L320.533 262.6C318.267 254.067 313.2 245.533 309.067 243.133C307.067 241.933 305.333 240.6 305.333 240.2C305.333 239.8 313.333 232.067 323.067 223C332.667 213.933 351.2 196.6 364 184.467C397.733 152.333 397.733 152.333 398.933 152.333C399.467 152.333 400.533 153.533 401.333 155.133ZM366 172.333C369.867 173.8 369.867 173.933 367.333 175.8C364.667 177.8 352.267 189.667 320.667 220.467L302 238.733L295.467 237.667C279.333 235.133 262.667 247 262.667 260.867C262.667 263.8 261.2 265 252 269.667C239.2 276.067 229.2 279.933 217.067 283C209.2 285.133 208.133 285.133 207.333 283.267C206.4 280.6 207.867 272.867 210.8 265.933C213.6 259.4 215.2 258.6 214.4 264.333C214 267.133 214.267 267.933 215.2 267C215.867 266.333 217.867 265.667 219.467 265.667C221.067 265.667 223.067 264.733 224 263.8C224.8 262.733 228.667 261.133 232.533 260.333C236.4 259.533 243.2 257.133 247.867 255C252.4 252.867 256.533 251.133 257.067 251.267C258.933 251.667 262.667 249.4 261.867 248.2C261.467 247.533 262.267 247.4 263.467 247.933C265.067 248.467 265.467 248.333 264.8 247.133C264.133 246.2 264.533 245.8 265.6 245.933C266.533 246.2 267.2 245.667 267.067 244.867C266.933 244.067 267.6 243.4 268.4 243.4C271.067 243.4 283.333 234.2 289.6 227.533C292.667 224.2 296.933 219.667 298.933 217.4C302 214.067 304.4 210.067 307.733 202.333C308 201.533 305.467 203.933 302 207.667L295.867 214.333L303.067 204.333C307.067 198.867 312.133 190.733 314.4 186.333C317.867 179.4 319.333 177.8 324.933 175.267C328.4 173.667 333.467 171.8 336 171.133C341.733 169.4 360.667 170.2 366 172.333ZM399.467 226.733C398.267 246.867 392 255.933 368.4 271.4C350 283.533 348.533 285.4 338.667 310.2C333.6 323 329.333 329.4 319.067 339C308.8 348.867 304.133 351.933 293.867 355.8C286.8 358.467 283.067 359 272.267 358.867C265.2 358.733 257.867 358.2 256 357.667C252.8 356.6 252.8 356.6 255.733 356.467C259.333 356.333 264 353.533 271.867 346.733C275.067 343.933 278 341.933 278.4 342.2C279.067 342.867 285.333 335.8 285.333 334.467C285.333 333.933 288 330.867 291.2 327.533C298.667 319.8 306.667 306.467 307.2 300.867C307.467 297.933 308.933 295.4 311.733 293C314 291.133 316.8 287.267 318 284.6C319.467 281.4 324.133 276.6 331.067 271C341.867 262.333 368.933 236.733 387.867 217.267L398 207L399.067 210.6C399.733 212.733 399.867 219.933 399.467 226.733ZM134 235.267C133.467 234.2 135.467 234.733 138.533 236.6C141.467 238.2 143.733 240.333 143.467 241.267C143.067 242.2 143.6 242.6 144.8 242.067C146.133 241.533 146.4 242.067 145.867 243.533C144.933 245.8 147.333 246.6 148.667 244.333C149.067 243.533 150.667 243.667 152.667 244.6C154.533 245.4 155.733 246.333 155.467 246.6C155.2 247 153.733 246.6 152.133 245.8C150.4 244.733 149.2 244.733 148.667 245.667C147.6 247.4 162.133 254.2 164.667 253.133C165.733 252.733 166.933 253.133 167.467 253.8C167.867 254.6 170.4 256.2 172.933 257.267C176.667 258.733 178 258.733 179.467 257.533C181.067 256.2 181.467 256.2 181.067 257.667C180.8 259 182.933 259.933 188.533 260.733C197.467 261.933 202.667 261.133 202.667 258.467C202.667 257.4 203.6 256.333 204.667 255.8C208 254.6 204.933 259.133 198.133 265.4C190.933 271.933 180 275.667 171.067 274.467C152.133 271.933 133.867 254.733 119.2 225.4L114.4 215.667L124.667 226.333C130.4 232.2 134.667 236.2 134 235.267ZM381.333 216.733C381.333 217 379.733 218.6 377.733 220.467L374 223.667L377.2 219.933C380.267 216.6 381.333 215.667 381.333 216.733ZM302 253.667C298.267 257.267 294.8 260.333 294 260.333C293.333 260.333 295.733 257.267 299.333 253.667C302.933 249.933 306.533 247 307.333 247C308 247 305.6 249.933 302 253.667ZM162.267 251.267C161.867 252.333 161.467 251.933 161.467 250.467C161.333 249 161.733 248.2 162.133 248.733C162.533 249.133 162.667 250.333 162.267 251.267ZM307.333 260.333C304.533 263.267 301.867 265.267 301.467 265C301.2 264.6 303.2 261.933 306 259C308.8 256.067 311.467 254.067 311.867 254.333C312.133 254.733 310.133 257.4 307.333 260.333ZM209.333 260.333C208.533 261.8 207.2 263 206.4 263C205.6 263 206 261.8 207.333 260.333C208.667 258.867 210 257.667 210.267 257.667C210.533 257.667 210.133 258.867 209.333 260.333ZM291.867 264.467C294.133 265.267 296 266.467 296 267.133C296 267.8 294.4 267.667 292.4 266.867C285.867 264.333 280.533 265.267 267.867 271C260.933 274.067 252.933 277.667 250 278.867C237.733 284.333 215.6 291.133 211.067 290.867C209.733 290.867 210.8 290.2 213.333 289.533C232.933 284.2 246.933 278.867 265.867 269.533C279.467 262.867 284.4 261.8 291.867 264.467ZM311.467 269.267C308.667 271.8 306.133 273.667 305.867 273.267C304.8 272.2 313.867 263.267 315.2 263.933C315.867 264.467 314.133 266.867 311.467 269.267ZM50.2667 268.6C49.8667 269.667 49.4667 269.267 49.4667 267.8C49.3334 266.333 49.7334 265.533 50.1334 266.067C50.5334 266.467 50.6667 267.667 50.2667 268.6ZM52.5334 273.133C52.9334 274.2 52.8 274.733 52 274.333C51.2 273.933 50.6667 273 50.6667 272.2C50.6667 270.333 51.6 270.733 52.5334 273.133ZM152.533 273.133C152.933 274.2 152.8 274.733 152 274.333C151.2 273.933 150.667 273 150.667 272.2C150.667 270.333 151.6 270.733 152.533 273.133ZM194 273.667C193.6 274.333 192.4 275 191.6 275C190.667 275 190.8 274.467 192 273.667C194.533 272.067 195.067 272.067 194 273.667ZM163.333 277.4C162.933 277.8 161.867 277.4 160.933 276.467C159.733 275.133 159.867 275 161.733 275.8C163.067 276.2 163.733 277 163.333 277.4ZM203.467 285.133C203.067 286.2 202 287 201.067 286.867C199.733 286.867 199.733 286.6 201.067 286.067C201.867 285.8 202.8 283.8 202.8 281.933C202.933 279.533 203.2 279.133 203.6 280.733C204 282.067 203.867 284.067 203.467 285.133ZM202.667 292.2C200.267 293.667 182.933 295.667 184.267 294.333C185.2 293.4 196 291.4 201.333 291.133C203.867 291.133 204.133 291.4 202.667 292.2ZM57.3334 300.467C57.3334 304.067 69.0667 321 78.5333 330.867C87.0667 340.067 89.4667 341.8 91.8667 341C93.6 340.467 94.6667 340.733 94.6667 341.667C94.6667 342.467 94 342.733 93.0667 342.2C92.2667 341.667 92 341.8 92.4 342.6C94.2667 345.667 107.733 351.267 110.8 350.333C113.2 349.667 113.467 349.8 112 350.867C109.867 352.333 109.2 351.933 120.533 355.8C124.133 357 130 357.933 133.467 357.933C140.133 357.8 142.8 359.4 140.133 362.067C139.067 363.133 138.667 363.133 138.667 361.933C138.667 360.733 137.733 360.867 135.467 362.467C132.267 364.467 132 368.333 134.933 368.333C135.733 368.333 136 367.533 135.6 366.6C135.2 365.667 136 364.867 137.333 364.733C138.667 364.6 140.133 365.4 140.533 366.467C141.067 367.8 140.8 368.067 139.733 367.533C138.933 367 137.467 367.8 136.4 369.133C134.533 371.667 134.4 371.667 132.667 369.133C130.933 366.733 130.533 366.733 127.333 368.867C125.467 370.067 124 372.067 124 373.133C124 375 124.267 375.133 126.267 373.533C128.267 371.933 128.4 371.933 127.6 373.933C127.2 375.267 127.333 376.6 128 377C128.8 377.533 129.333 377.267 129.333 376.6C129.333 375.8 130.267 375 131.333 374.467C134.667 373.267 133.6 374.467 127.067 379.8C122.533 383.4 121.6 383.8 124 381.133C126.8 378.067 126.933 377.267 125.333 376.333C121.6 373.933 119.2 375 111.867 381.8C108 385.533 106.267 387.533 108.4 386.333C110.4 385 112 384.6 112 385.4C112 386.867 107.867 388.6 103.867 389C100.4 389.267 91.8667 396.733 93.7333 397.933C94.5333 398.467 94.9333 399.267 94.4 399.667C92.6667 401.533 88.4 396.867 82.6667 387.267C79.4667 381.533 76 376.333 75.0667 375.667C74 374.867 73.0667 371.933 72.8 369C72.6667 366.067 71.4667 361.533 70.2667 359C69.0667 356.467 66.9333 350.867 65.6 346.6C64.1333 342.333 62.6667 339 62.1334 339C61.6 339.133 60.6667 338.733 60.2667 338.2C59.7334 337.667 60.1334 337.667 61.0667 338.2C62 338.733 62.6667 338.333 62.6667 337.133C62.6667 333.8 61.0667 331 59.6 331.933C58.6667 332.467 58.5334 331.4 59.0667 328.6C59.6 326.333 59.3334 324.067 58.6667 323.667C58 323.267 57.7334 322.067 58.2667 321C58.6667 319.933 58.2667 319 57.3334 319C56.2667 319 55.8667 317.667 56.4 315C56.9334 312.867 56.6667 310.733 55.8667 310.333C55.2 309.8 54.9334 308.333 55.3334 307C55.7334 305.533 55.6 303.267 54.8 301.933C53.3334 299.267 54.1334 297.267 56.1334 298.467C56.8 298.867 57.3334 299.8 57.3334 300.467ZM63.6 304.6C63.2 305.667 62.8 305.267 62.8 303.8C62.6667 302.333 63.0667 301.533 63.4667 302.067C63.8667 302.467 64 303.667 63.6 304.6ZM150 317.667C150.4 318.333 149.867 319 148.8 319C147.6 319 146.667 318.333 146.667 317.667C146.667 316.867 147.2 316.333 147.867 316.333C148.667 316.333 149.6 316.867 150 317.667ZM77.4667 322.6C79.2 324.733 79.0667 324.867 77.0667 323.133C75.7333 322.2 74.6667 321.133 74.6667 320.867C74.6667 319.8 75.7333 320.467 77.4667 322.6ZM146.8 327.667C146.133 331.533 145.6 332.333 144.933 330.6C144.133 328.467 146.133 320.6 147.2 321.8C147.467 322.067 147.333 324.733 146.8 327.667ZM145.333 337.667C145.333 338.333 145.067 339 144.8 339C144.4 339 143.733 338.333 143.333 337.667C142.933 336.867 143.2 336.333 143.867 336.333C144.667 336.333 145.333 336.867 145.333 337.667ZM101.067 343.4C100.933 343.667 101.6 345 102.667 346.467C104.533 348.867 104.533 348.867 102.4 347.133C101.067 346.2 100 344.467 100 343.267C100 342.2 100.4 341.533 100.8 341.933C101.2 342.467 101.333 343 101.067 343.4ZM59.2 353.8C60.1334 359.933 70.2667 391 74.5333 400.6C77.7333 408.067 78.4 407.8 62.1334 405.533C50 403.933 40 399.667 32.2667 392.733C27.3334 388.333 26.4 386.733 25.8667 381C24.6667 370.867 27.3334 364.733 35.3334 359.133C40.9334 355.133 54.8 348.467 57.4667 348.333C58 348.333 58.6667 350.733 59.2 353.8ZM65.3333 354.333C65.3333 355.4 65.0667 356.333 64.8 356.333C64.5333 356.333 64 355.4 63.4667 354.333C63.0667 353.267 63.3333 352.333 64 352.333C64.8 352.333 65.3333 353.267 65.3333 354.333ZM151.2 357.133C151.6 358.2 151.467 358.733 150.667 358.333C149.867 357.933 149.333 357 149.333 356.2C149.333 354.333 150.267 354.733 151.2 357.133ZM144 363C144 363.667 143.467 364.333 142.667 364.333C142 364.333 141.333 363.667 141.333 363C141.333 362.2 142 361.667 142.667 361.667C143.467 361.667 144 362.2 144 363ZM293.333 364.467C293.333 365.267 292.8 365.4 292 365C291.333 364.6 290.667 363.533 290.667 362.867C290.667 362.067 291.333 361.933 292 362.333C292.8 362.733 293.333 363.8 293.333 364.467ZM71.2 372.067C71.6 372.733 71.0667 373.267 70 373.267C68.9333 373.267 68 372.733 68 372.067C68 371.533 68.5333 371 69.2 371C70 371 70.8 371.533 71.2 372.067ZM273.733 376.6C277.867 380.867 277.867 381 275.067 381.4C271.2 381.933 271.067 384.333 274.8 384.333C277.333 384.333 277.6 384.867 276.8 388.6C276.4 390.867 274.933 393.933 273.733 395.267C271.6 397.667 269.2 398.467 269.467 396.6C270 393.533 268.933 393.4 267.333 396.333C265.467 399.667 265.467 399.667 265.333 396.6C265.333 393 263.2 392.733 262 396.333C260.933 399.667 259.333 399.667 256 396.333C252.933 393.267 250.667 388.2 250.667 384.2C250.667 382.067 251.333 381.8 254.267 382.467C257.067 383.267 257.6 383 256.933 381.267C255.867 378.467 258.267 376.733 264 375.933L268.667 375.4L263.733 375.267C260.8 375.133 258 375.8 256.667 377.133C255.467 378.333 254.133 378.867 253.6 378.333C251.733 376.467 258.933 372.333 264.267 372.333C268.4 372.333 270.4 373.267 273.733 376.6ZM120.533 378.067C120.267 379 118 380.867 115.6 382.2L111.333 384.6L115.867 380.467C120.8 375.933 121.6 375.533 120.533 378.067ZM142.667 381.667C145.067 383.267 142.933 383.267 139.333 381.667C137.6 380.867 137.333 380.467 138.667 380.467C139.733 380.467 141.6 381 142.667 381.667ZM73.8667 383.8C74.2667 384.867 74.1333 385.4 73.3333 385C72.5333 384.6 72 383.667 72 382.867C72 381 72.9333 381.4 73.8667 383.8ZM116 386.333C115.067 387.533 114 388.067 113.467 387.667C113.067 387.267 113.6 386.333 114.667 385.667C117.467 383.8 117.867 384.067 116 386.333ZM302.667 388.333C302.667 389.8 302.4 391 302.133 391C301.867 391 301.333 389.8 300.933 388.333C300.533 386.867 300.8 385.667 301.467 385.667C302.133 385.667 302.667 386.867 302.667 388.333ZM160.667 388.333C161.067 389.133 160.533 389.267 159.467 388.867C157.067 387.933 156.667 387 158.533 387C159.333 387 160.267 387.533 160.667 388.333ZM28.5334 397.933C28.9333 401.8 29.2 407.4 29.2 410.333L29.0667 415.667L28 410.333C26.1334 400.6 25.4667 391 26.5334 391C27.2 391 28 394.2 28.5334 397.933ZM110.667 391.533C110.667 391.8 109.733 392.467 108.533 392.867C107.467 393.267 106.933 393.133 107.333 392.333C108.133 391 110.667 390.467 110.667 391.533ZM175.2 394.333C177.2 395.8 177.333 396.333 175.867 396.333C174.8 396.333 172.667 395.4 171.2 394.333C169.333 392.867 169.2 392.467 170.667 392.467C171.733 392.467 173.867 393.267 175.2 394.333ZM81.3333 395C81.3333 395.667 80.8 396.333 80 396.333C79.3333 396.333 78.6667 395.667 78.6667 395C78.6667 394.2 79.3333 393.667 80 393.667C80.8 393.667 81.3333 394.2 81.3333 395ZM105.333 395.533C105.333 395.933 104.8 396.6 104 397C103.333 397.4 102.667 397.133 102.667 396.467C102.667 395.667 103.333 395 104 395C104.8 395 105.333 395.267 105.333 395.533ZM83.0667 400.2C83.8667 403.267 80.5333 405.133 79.4667 402.2C79.0667 401 79.3333 400.6 80 401C80.8 401.4 81.3333 400.867 81.3333 399.8C81.3333 396.867 82.2667 397.133 83.0667 400.2ZM105.333 399.533C105.333 399.8 104.267 400.867 103.067 401.8C100.933 403.533 100.8 403.4 102.533 401.267C104.267 399.133 105.333 398.467 105.333 399.533ZM127.333 406.2L132.667 409L118.133 409.4C110.133 409.533 103.333 409.4 102.8 408.867C102.4 408.467 104.4 406.067 107.2 403.667C112.267 399.4 112.533 399.4 117.2 401.267C119.867 402.467 124.4 404.6 127.333 406.2ZM188.8 402.333C190.133 403.4 190.667 404.333 189.867 404.333C189.2 404.333 187.333 403.4 185.867 402.333C184.533 401.267 184 400.333 184.8 400.333C185.467 400.333 187.333 401.267 188.8 402.333ZM96.4 408.333C94 410.6 91.6 412.333 91.0667 412.333C90 412.2 98.8 404.467 100 404.333C100.4 404.333 98.8 406.2 96.4 408.333ZM86.5333 410.6C86.1333 413.4 86.8 415 88.2667 414.2C89.2 413.667 89.3333 413.8 88.8 414.733C88.2667 415.667 87.3333 416.333 86.8 416.333C85.4667 416.333 84 411.4 85.0667 410.467C86.1333 409.4 86.6667 409.533 86.5333 410.6ZM204.667 414.733C203.867 415.667 198.667 412.2 198.667 410.867C198.667 410.2 200.133 410.6 201.867 411.933C203.6 413.267 204.933 414.467 204.667 414.733ZM307.6 416.6C307.2 417.667 306.8 417.267 306.8 415.8C306.667 414.333 307.067 413.533 307.467 414.067C307.867 414.467 308 415.667 307.6 416.6ZM15.7334 423.267C16.1334 425.667 11.7334 429.133 7.33335 429.933C3.86668 430.467 3.06668 426.2 6.13335 422.867C8.93335 419.667 15.0667 419.933 15.7334 423.267ZM364.4 421.267C362.667 421.533 359.733 421.533 357.733 421.267C355.6 421 357.067 420.733 360.667 420.733C364.4 420.733 366 421 364.4 421.267ZM370.667 422.2C370.667 423.267 370.133 424.467 369.6 424.867C369.067 425.133 368.533 424.333 368.533 422.867C368.533 421.533 369.067 420.333 369.6 420.333C370.133 420.333 370.667 421.133 370.667 422.2ZM214.667 423.667C217.333 426.867 215.467 427.4 212.667 424.333C211.333 422.867 210.933 421.667 211.6 421.667C212.4 421.667 213.733 422.6 214.667 423.667ZM343.333 422.6C341.2 422.867 336.133 423.667 332.267 424.2C328.4 424.867 325.6 424.867 326.267 424.2C327.467 423 334.267 422.067 342 422.067C346 422.067 346.4 422.2 343.333 422.6ZM316.4 425.267L308.133 425.8L307.6 434.733L307.2 443.667L306.933 433.933L306.667 424.333L315.733 424.6L324.667 424.867L316.4 425.267ZM39.0667 440.467C41.0667 442.067 42.5334 443.667 42.2667 443.933C41.4667 444.733 18.6667 428.2 18.6667 426.867C18.6667 425.8 28.9334 432.6 39.0667 440.467ZM367.6 441.667C366 448.733 365.867 449 361.333 449.133C357.733 449.4 357.467 449.267 360.4 448.733C364.667 448.067 366 445.533 367.467 434.2C368.267 429 368.8 427.667 368.933 430.333C369.2 432.467 368.533 437.667 367.6 441.667ZM222.667 435C223.467 436.467 223.867 437.667 223.6 437.667C223.333 437.667 222 436.467 220.667 435C219.333 433.533 218.933 432.333 219.733 432.333C220.533 432.333 221.867 433.533 222.667 435ZM301.333 436.2C301.333 439.133 297.733 459 295.867 465.933L294.533 471L286.267 470.733L278 470.6L286 469.8L294 469L296.8 455C301.067 434.067 301.333 435.267 292.4 434.6L284.667 434.2L293.067 433.933C300.4 433.667 301.333 433.933 301.333 436.2ZM275.733 435.933C273.6 436.2 270.4 436.2 268.4 435.933C266.267 435.667 268 435.4 272 435.4C276 435.4 277.733 435.667 275.733 435.933ZM264 436.733C263.6 437.133 259.2 437.667 254 438.067C248.933 438.6 241.733 439.267 238 439.533C232.533 440.067 232.933 439.933 240 438.6C248.933 436.867 265.2 435.667 264 436.733ZM230.667 440.067C230.667 441.4 220.133 444.867 219.067 443.933C218.8 443.533 221.067 442.467 224.267 441.267C227.467 440.2 230.133 439.267 230.4 439.133C230.533 439.133 230.667 439.533 230.667 440.067ZM306.267 449.4L305.333 454.333L311.067 454.067L316.667 453.8L310.667 454.867C307.333 455.533 304.533 455.8 304.267 455.667C303.6 455.133 305.6 444.333 306.4 444.333C306.667 444.333 306.667 446.6 306.267 449.4ZM348 451.133C332.8 452.6 326.8 452.067 340.667 450.467C348 449.533 354.667 449.267 355.333 449.667C356.133 450.067 352.8 450.733 348 451.133ZM325.067 453.267C323.733 453.533 321.333 453.533 319.733 453.267C318 453 319.067 452.733 322 452.733C324.933 452.6 326.267 452.867 325.067 453.267ZM239.067 469.8C235.867 471.133 222.667 471.267 222.667 469.933C222.667 469.4 226.933 469 232.133 469C237.2 468.867 240.4 469.4 239.067 469.8ZM256.667 469C253.6 470.067 245.6 470.333 246.133 469.4C246.533 468.867 249.333 468.333 252.4 468.467C255.467 468.467 257.467 468.733 256.667 469ZM264.933 469.133C264.533 469.533 263.333 469.667 262.4 469.267C261.333 468.867 261.733 468.467 263.2 468.467C264.667 468.333 265.467 468.733 264.933 469.133ZM277.333 469C277.333 469.933 272.133 470.6 270.8 469.667C269.867 469.133 270.933 468.733 273.2 468.6C275.467 468.6 277.333 468.733 277.333 469Z" fill="black"/>
<path d="M314.267 97.1333C313.2 98.2 314.4 100.333 316.133 100.333C316.8 100.333 317.333 99.4 317.333 98.3333C317.333 96.3333 315.733 95.6666 314.267 97.1333Z" fill="black"/>
<path d="M457.733 101C465.733 107.133 467.467 107.133 459.867 101C456.667 98.4666 453.467 96.3333 452.8 96.3333C452.133 96.3333 454.4 98.4666 457.733 101Z" fill="black"/>
<path d="M439.333 110.733C432.8 117 429.733 120.333 432.667 118.067C438 113.933 453.2 99 452 99C451.6 99.1334 446 104.333 439.333 110.733Z" fill="black"/>
<path d="M150.133 291.933C149.333 293.8 149.467 293.933 150.8 292.733C151.733 291.8 152.133 290.733 151.733 290.333C151.333 289.933 150.533 290.6 150.133 291.933Z" fill="black"/>
<path d="M164.533 154.2C163.333 156.2 162.667 158.067 163.067 158.467C163.467 158.867 164.8 157.667 166.133 155.8C167.333 153.8 168 151.933 167.6 151.533C167.2 151.133 165.867 152.333 164.533 154.2Z" fill="black"/>
<path d="M339.067 174.6C340.267 174.867 342.4 174.867 343.733 174.6C344.933 174.2 343.867 173.933 341.333 173.933C338.8 173.933 337.733 174.2 339.067 174.6Z" fill="black"/>
<path d="M357.067 174.6C358.667 174.867 361.067 174.867 362.4 174.6C363.6 174.2 362.267 173.933 359.333 174.067C356.4 174.067 355.333 174.333 357.067 174.6Z" fill="black"/>
<path d="M333.067 175.933C334 176.333 335.2 176.2 335.6 175.8C336.133 175.4 335.333 175 333.867 175.133C332.4 175.133 332 175.533 333.067 175.933Z" fill="black"/>
<path d="M210.8 275.8C210.8 277.267 211.2 277.667 211.6 276.6C212 275.667 211.867 274.467 211.467 274.067C211.067 273.533 210.667 274.333 210.8 275.8Z" fill="black"/>
<path d="M137.333 239C138.4 239.667 140 240.333 140.667 240.333C141.467 240.333 141.067 239.667 140 239C138.933 238.333 137.467 237.667 136.667 237.667C136 237.667 136.267 238.333 137.333 239Z" fill="black"/>
<path d="M567.6 122.733C565.867 125.267 563.867 143.8 564.133 153.933C564.4 166.6 567.2 182.067 570.267 187C572.8 191.267 576.4 193.267 584 194.467C598.267 196.733 605.067 180.733 602.533 150.6C600.933 133.267 599.067 125.533 596.133 124.6C594.533 124.067 594.4 126.333 595.067 138.733C596.133 156.333 594.133 175.667 590.933 180.2C587.2 185.4 583.067 186.2 579.333 182.467C574 177.133 571.733 167 571.067 145C570.4 125.933 569.467 119.667 567.6 122.733Z" fill="black"/>
<path d="M630 141.533C624.133 143.933 618.667 153.933 618.667 162.2C618.667 166.6 625.067 176.467 631.067 181.533C632.533 182.733 633.333 185.4 633.333 189.267C633.333 194.333 632.667 195.933 628.933 199.667C621.6 207 614.533 207.4 606.933 201C602.133 197 601.333 196.867 601.333 200.467C601.333 204.467 609.6 212.333 614.267 212.6C624.667 213.133 633.2 209.4 638.933 201.667C645.2 193.133 643.6 181.533 635.067 172.6C629.067 166.467 625.333 159.933 625.333 155.667C625.333 154.467 626.8 152.067 628.667 150.333C632.4 146.467 640 145.8 642.667 149C643.6 150.067 644.8 151 645.467 151C647.867 151 646.533 147.4 642.933 143.933C639.2 140.333 634.933 139.533 630 141.533Z" fill="black"/>
<path d="M532.667 149.267C523.6 149.933 512 152.333 512 153.533C512 154.067 520.134 154.333 530.134 154.2L548.134 153.8L531.734 170.867C513.067 190.2 508.4 197.133 511.2 201C512.934 203.4 513.6 203.4 529.467 201.267C543.734 199.4 557.6 196.6 563.867 194.333C565.334 193.8 565.334 193.267 563.867 191.533C562.134 189.4 558.667 189.533 542.667 191.667C540.8 191.933 535.734 192.6 531.334 193.133C522.134 194.2 521.2 196.2 537.867 177C554.134 158.333 554.267 158.2 556.667 154.6C557.867 152.733 558.534 150.467 558 149.667C557.2 148.467 547.734 148.2 532.667 149.267Z" fill="black"/>
<path d="M567.334 215.933C562 223.4 547.6 252.067 543.867 262.733C540.4 272.6 542.534 274.733 547.6 266.6C549.6 263.267 552.4 258.733 553.6 256.467C556.134 251.8 558.667 251.4 568 254.2L574 255.933L574.934 272.333C575.867 289.8 577.467 294.067 580.267 287.533C582.667 281.933 582.934 240.067 580.667 225.267C578 207.667 574.934 205.667 567.334 215.933ZM573.334 232.6C573.467 236.467 573.734 242.067 574.134 244.867C574.8 249.533 574.667 249.933 572.534 249.133C571.2 248.6 567.6 247.8 564.534 247.4C559.334 246.733 559.067 246.467 560.534 243.8C564.667 236.067 571.467 225.667 572.267 225.667C572.934 225.667 573.334 228.867 573.334 232.6Z" fill="black"/>
<path d="M642.267 215.933C641.733 216.333 641.333 220.733 641.333 225.533C641.333 230.333 640.4 241.533 639.333 250.333C636.267 276.2 636.667 277.533 646.8 272.867C653.2 270.067 658 264.733 662.133 255.667C668 243.133 665.867 232.467 655.2 222.067C648.4 215.533 644.533 213.667 642.267 215.933ZM652.8 228.333C656.933 234.6 658.267 243.4 656 250.333C654.4 255 647.467 264.333 645.467 264.333C644.933 264.333 644.933 261.133 645.467 257.267C646 253.533 646.533 244.2 646.533 236.6C646.667 228.6 647.2 223 648 223C648.667 223 650.933 225.4 652.8 228.333Z" fill="black"/>
<path d="M508.8 219C500.933 219.4 496.667 220.2 496.267 221.267C495.6 223.533 501.6 225.667 508.533 225.667C514 225.667 514.4 225.933 515.2 229.8C515.6 232.067 516 238.867 516 244.867C516 265.133 521.6 291.267 525.333 289C526.4 288.333 526.533 279 525.867 257.533L524.933 227H534.4C545.467 227 548 226.2 548 222.867C548 217.533 543.467 217 508.8 219Z" fill="black"/>
<path d="M624.133 219.4C623.333 220.467 622.533 226.067 622.4 232.067C622.267 238.067 621.733 243 621.2 243C620.667 243 615.733 238.467 610.133 232.867C596.533 219.4 595.6 219.667 594.4 237.667C593.2 253.667 594.533 275.267 596.8 275.933C598.8 276.6 599.6 271.4 600.8 252.6C601.333 244.467 602.133 237.667 602.667 237.667C603.2 237.667 607.733 242.067 612.8 247.4C623.733 258.867 624.8 259.667 627.333 257.667C630.133 255.4 630.267 221.4 627.467 219.133C626.133 218.067 625.333 218.067 624.133 219.4Z" fill="black"/>
</svg>
